<svg viewBox="0 0 653 684" fill="none" xmlns="http://www.w3.org/2000/svg">
    <path d="M328.459 348.092C152.584 348.092 9.35967 310.237 7.62939e-06 262.374V137.279C9.35967 185.141 152.367 222.996 328.459 222.996C414.248 224.653 499.801 213.433 582.258 189.71V146.198C499.779 169.775 414.226 180.848 328.459 179.05C152.367 179.485 10.448 141.63 7.62939e-06 94.2023C4.35334 20.0153 206.348 0 326.5 0C446.652 0 653 20.2328 653 96.3779V587.622C653 663.55 447.74 684 326.5 684C205.26 684 7.62939e-06 663.767 7.62939e-06 587.622V474.492C9.35967 522.137 152.367 559.557 328.459 559.557C414.194 561.568 499.745 550.714 582.258 527.359V483.847C499.745 507.203 414.194 518.057 328.459 516.046C152.367 516.046 9.35967 478.626 7.62939e-06 430.981V305.885C9.35967 353.748 152.367 391.603 328.459 391.603C414.226 393.402 499.779 382.328 582.258 358.752V315.24C499.779 338.817 414.226 349.89 328.459 348.092Z" fill="white"/>
</svg>
