<svg viewBox="0 0 60 12" fill="none" xmlns="http://www.w3.org/2000/svg">
    <path d="M53.975 0L55.3165 4.12862H59.6576L56.1455 6.68025L57.487 10.8089L53.975 8.25725L50.463 10.8089L51.8045 6.68025L48.2924 4.12862H52.6335L53.975 0Z" fill="#A3A3A3"/>
    <path d="M53.9769 0L54 4.12966V5V6L53.9769 6.5V7V8V8.25932L50.464 10.8116L51.8058 6.68193L48.293 4.12966L52.6351 4.12966L53.9769 0Z" fill="#D49319"/>
    <path d="M5.97642 0L7.31821 4.12966L11.6603 4.12966L8.14748 6.68193L9.48927 10.8116L5.97642 8.25932L2.46357 10.8116L3.80536 6.68193L0.292507 4.12966L4.63463 4.12966L5.97642 0Z" fill="#D49319"/>
    <path d="M17.9764 0L19.3182 4.12966L23.6603 4.12966L20.1475 6.68193L21.4893 10.8116L17.9764 8.25932L14.4636 10.8116L15.8054 6.68193L12.2925 4.12966L16.6346 4.12966L17.9764 0Z" fill="#D49319"/>
    <path d="M29.9764 0L31.3182 4.12966L35.6603 4.12966L32.1475 6.68193L33.4893 10.8116L29.9764 8.25932L26.4636 10.8116L27.8054 6.68193L24.2925 4.12966L28.6346 4.12966L29.9764 0Z" fill="#D49319"/>
    <path d="M41.9764 0L43.3182 4.12966L47.6603 4.12966L44.1475 6.68193L45.4893 10.8116L41.9764 8.25932L38.4636 10.8116L39.8054 6.68193L36.2925 4.12966L40.6346 4.12966L41.9764 0Z" fill="#D49319"/>
</svg>
