<svg viewBox="0 0 401 401" fill="none" xmlns="http://www.w3.org/2000/svg">
    <path d="M200.5 401C311.233 401 401 311.233 401 200.5C401 89.7669 311.233 0 200.5 0C89.7669 0 0 89.7669 0 200.5C0 311.233 89.7669 401 200.5 401Z" fill="#633AE5"/>
    <path fill-rule="evenodd" clip-rule="evenodd" d="M268.112 240.041C247.048 240.041 225.702 225.734 225.702 198.399C225.702 181.226 212.419 172.217 199.314 172.217C192.973 172.092 186.839 174.474 182.243 178.845C177.124 183.964 174.385 191.643 174.385 201.164C174.385 247.924 198.495 275.387 250.298 287.851C252.446 288.348 254.336 289.62 255.605 291.422C256.874 293.223 257.434 295.432 257.178 297.623C256.921 299.811 255.866 301.831 254.214 303.29C252.562 304.751 250.43 305.55 248.225 305.537C247.517 305.539 246.813 305.452 246.126 305.281C186.62 291.05 156.546 256.012 156.546 201.164C156.546 182.889 163.738 171.986 169.753 166.048C177.682 158.403 188.3 154.184 199.314 154.301C228.082 154.301 243.618 177.028 243.618 198.399C243.618 214.805 255.929 222.125 268.112 222.125C274.907 222.194 281.497 219.804 286.667 215.394C289.442 212.778 291.62 209.597 293.051 206.062C294.481 202.528 295.131 198.727 294.96 194.919C294.96 139.891 244.821 105.927 198.367 105.927C167.654 105.927 141.471 119.313 124.553 143.577C104.846 171.884 101.519 211.273 115.34 248.922C115.959 251.1 115.732 253.432 114.702 255.449C113.672 257.463 111.918 259.017 109.79 259.792C107.663 260.565 105.321 260.506 103.236 259.626C101.15 258.743 99.476 257.105 98.5497 255.039C82.5789 211.888 86.8276 166.355 109.888 133.237C119.825 119.049 133.084 107.51 148.507 99.6272C163.93 91.7439 181.048 87.7561 198.367 88.0115C231.077 88.0115 260.868 100.092 282.265 122.001C301.561 141.453 312.569 167.625 312.978 195.021C313.178 201.353 311.996 207.652 309.515 213.482C307.038 219.31 303.319 224.531 298.62 228.78C290.182 236.159 279.319 240.169 268.112 240.041ZM196.576 120.311C236.221 117.906 277.377 148.695 277.377 196.173C277.377 198.548 276.432 200.826 274.753 202.507C273.072 204.186 270.794 205.131 268.419 205.131C266.044 205.131 263.764 204.186 262.084 202.507C260.405 200.826 259.461 198.548 259.461 196.173C259.518 188.121 257.89 180.146 254.684 172.761C251.477 165.375 246.762 158.741 240.84 153.285C234.919 147.829 227.923 143.671 220.3 141.078C212.677 138.485 204.596 137.514 196.576 138.227C168.601 140.787 140.806 159.599 139.552 199.654C138.144 244.187 154.652 274.619 187.055 295.274C188.689 296.318 189.941 297.864 190.622 299.678C191.303 301.495 191.376 303.482 190.831 305.342C190.285 307.203 189.151 308.838 187.598 309.998C186.044 311.16 184.157 311.784 182.217 311.782C180.519 311.792 178.855 311.301 177.431 310.374C139.884 286.444 120.279 250.202 121.636 199.654C123.018 147.697 160.155 122.538 196.576 120.311ZM191.815 199.654C191.815 197.278 192.759 194.998 194.439 193.319C196.119 191.64 198.397 190.696 200.773 190.696C203.149 190.696 205.427 191.64 207.107 193.319C208.787 194.998 209.731 197.278 209.731 199.654C209.731 216.699 215.541 230.75 226.521 240.272C240.086 252.045 260.945 256.294 286.847 252.608C288.011 252.439 289.199 252.503 290.338 252.792C291.479 253.084 292.549 253.596 293.493 254.3C294.435 255.006 295.229 255.889 295.83 256.9C296.432 257.911 296.826 259.032 296.995 260.197C297.164 261.361 297.1 262.549 296.81 263.688C296.519 264.829 296.007 265.899 295.303 266.843C294.597 267.785 293.714 268.579 292.703 269.18C291.692 269.782 290.571 270.176 289.406 270.345C282.836 271.294 276.207 271.781 269.571 271.804C247.227 271.804 228.62 265.712 214.799 253.888C199.954 240.988 191.815 221.741 191.815 199.679V199.654Z" fill="white"/>
</svg>
