<svg viewBox="0 0 57 46" fill="none" xmlns="http://www.w3.org/2000/svg">
<path d="M55.8087 6.28475C55.1532 3.81225 53.2209 1.863 50.7699 1.20175C46.3239 5.99772e-07 28.5 0 28.5 0C28.5 0 10.6761 5.99772e-07 6.2301 1.20175C3.7791 1.863 1.8468 3.81225 1.1913 6.28475C-8.49366e-08 10.7697 0 23 0 23C0 23 -8.49366e-08 35.2302 1.1913 39.7152C1.8468 42.1877 3.7791 44.137 6.2301 44.7983C10.6761 46 28.5 46 28.5 46C28.5 46 46.3239 46 50.7699 44.7983C53.2237 44.137 55.1532 42.1877 55.8087 39.7152C57 35.2302 57 23 57 23C57 23 57 10.7697 55.8087 6.28475ZM22.8 30.4692V15.5308C22.8 14.4239 23.9884 13.7339 24.9375 14.2859L37.7625 21.7551C38.7115 22.3071 38.7115 23.6929 37.7625 24.2449L24.9375 31.7141C23.9884 32.269 22.8 31.5761 22.8 30.4692Z" fill="#CBCACC"/>
</svg>
