<svg viewBox="0 0 401 401" fill="none" xmlns="http://www.w3.org/2000/svg">
    <path d="M200.5 401C311.233 401 401 311.233 401 200.5C401 89.7669 311.233 0 200.5 0C89.7669 0 0 89.7669 0 200.5C0 311.233 89.7669 401 200.5 401Z" fill="#FFA91A"/>
    <path d="M163.617 316.322C173.97 320.487 185.199 322.959 196.992 323.374C212.949 323.931 228.132 320.629 241.698 314.359C225.429 307.967 210.694 298.619 198.113 286.996C189.968 300.053 177.91 310.358 163.617 316.322Z" fill="white" fill-opacity="0.86"/>
    <path d="M198.198 286.989C169.49 260.441 152.072 222.013 153.546 179.861C153.594 178.496 153.669 177.124 153.75 175.758C148.608 174.427 143.241 173.618 137.718 173.421C129.811 173.143 122.155 174.128 114.927 176.159C107.265 189.582 102.639 204.982 102.061 221.483C100.574 264.062 126.34 301.261 163.695 316.308C177.988 310.351 190.046 300.052 198.198 286.989Z" fill="white" fill-opacity="0.66"/>
    <path d="M198.166 286.987C204.844 276.308 208.886 263.782 209.361 250.291C210.597 214.804 186.741 184.276 153.72 175.758C153.638 177.123 153.563 178.495 153.516 179.861C152.048 222.005 169.459 260.433 198.166 286.987Z" fill="white" fill-opacity="0.86"/>
    <path d="M205.71 76C186.907 91.0671 172.051 110.93 163.07 133.816C157.928 146.927 154.694 161.002 153.75 175.763C186.771 184.282 210.629 214.81 209.386 250.304C208.917 263.795 204.855 276.308 198.19 287.001C210.765 298.637 225.506 307.971 241.775 314.363C274.436 299.269 297.608 266.784 298.946 228.363C299.815 203.466 290.251 181.28 276.739 162.551C262.467 142.749 205.71 76 205.71 76Z" fill="white"/>
</svg>
