<svg viewBox="0 0 401 401" fill="none" xmlns="http://www.w3.org/2000/svg">
    <path d="M200.5 401C311.233 401 401 311.233 401 200.5C401 89.7669 311.233 0 200.5 0C89.7669 0 0 89.7669 0 200.5C0 311.233 89.7669 401 200.5 401Z" fill="#EA4335"/>
    <path fill-rule="evenodd" clip-rule="evenodd" d="M107.555 108.875V291.878H177.608V263.243C177.608 256.926 182.434 251.805 188.386 251.805C194.338 251.805 199.164 256.926 199.164 263.243V297.433C199.164 306.059 192.908 314.753 183.297 314.753H101.867C92.2564 314.753 86 306.06 86 297.433V103.32C86 94.6928 92.2565 86 101.867 86H183.297C192.908 86 199.164 94.6934 199.164 103.32V137.51C199.164 143.827 194.338 148.948 188.386 148.948C182.434 148.948 177.608 143.827 177.608 137.51V108.875H107.555Z" fill="white"/>
    <path fill-rule="evenodd" clip-rule="evenodd" d="M225.391 108.875V137.51C225.391 143.827 220.566 148.948 214.613 148.948C208.661 148.948 203.836 143.827 203.836 137.51V103.32C203.836 94.6934 210.092 86 219.702 86H301.132C310.744 86 317 94.6934 317 103.32V297.433C317 306.059 310.744 314.753 301.132 314.753H219.702C210.091 314.753 203.836 306.059 203.836 297.433V263.243C203.836 256.926 208.661 251.805 214.613 251.805C220.566 251.805 225.391 256.926 225.391 263.243V291.878H295.444V108.875H225.391Z" fill="white"/>
    <path d="M139.04 282.17C145.357 282.17 150.478 277.05 150.478 270.732C150.478 264.415 145.357 259.295 139.04 259.295C132.723 259.295 127.602 264.415 127.602 270.732C127.602 277.05 132.723 282.17 139.04 282.17Z" fill="white"/>
    <path d="M263.805 282.17C270.122 282.17 275.243 277.05 275.243 270.732C275.243 264.415 270.122 259.295 263.805 259.295C257.488 259.295 252.367 264.415 252.367 270.732C252.367 277.05 257.488 282.17 263.805 282.17Z" fill="white"/>
    <path fill-rule="evenodd" clip-rule="evenodd" d="M141.469 200.982C141.469 194.666 146.59 189.545 152.907 189.545H244.409C250.726 189.545 255.847 194.666 255.847 200.982C255.847 207.3 250.726 212.42 244.409 212.42H152.907C146.59 212.42 141.469 207.3 141.469 200.982Z" fill="white"/>
    <path fill-rule="evenodd" clip-rule="evenodd" d="M208.991 165.6C213.457 161.133 220.7 161.133 225.166 165.6L252.462 192.897C256.929 197.363 256.929 204.605 252.462 209.072L225.166 236.368C220.699 240.835 213.457 240.834 208.991 236.367C204.524 231.9 204.524 224.659 208.991 220.192L218.09 211.094L228.199 200.984L218.09 190.875L208.991 181.776C204.524 177.309 204.524 170.067 208.991 165.6Z" fill="white"/>
</svg>
