<svg viewBox="0 0 668 668" fill="none" xmlns="http://www.w3.org/2000/svg">
    <path fill-rule="evenodd" clip-rule="evenodd" d="M33.9974 0.666016C52.4069 0.666016 67.3307 15.5899 67.3307 33.9993V125.666L111.661 85.6463C111.696 85.6144 111.731 85.5826 111.767 85.5508C170.718 32.7884 248.646 0.666016 333.997 0.666016C518.094 0.666016 667.331 149.905 667.331 333.999C667.331 352.409 652.407 367.333 633.997 367.333C615.588 367.333 600.664 352.409 600.664 333.999C600.664 186.723 481.274 67.3327 333.997 67.3327C265.703 67.3327 203.474 92.9622 156.279 135.18L120.664 167.333H200.664C219.074 167.333 233.997 182.257 233.997 200.666C233.997 219.076 219.074 233.999 200.664 233.999H33.9974C15.5879 233.999 0.664062 219.076 0.664062 200.666V33.9993C0.664062 15.5899 15.5879 0.666016 33.9974 0.666016ZM33.9974 300.666C52.4069 300.666 67.3307 315.59 67.3307 333.999C67.3307 481.276 186.721 600.666 333.997 600.666C402.293 600.666 464.52 575.035 511.716 532.817C511.733 532.802 511.75 532.786 511.767 532.771L547.33 500.666H467.331C448.921 500.666 433.997 485.742 433.997 467.333C433.997 448.923 448.921 433.999 467.331 433.999H633.997C652.407 433.999 667.331 448.923 667.331 467.333V633.999C667.331 652.409 652.407 667.333 633.997 667.333C615.588 667.333 600.664 652.409 600.664 633.999V542.332L556.334 582.352C556.299 582.384 556.263 582.416 556.227 582.448C497.276 635.208 419.351 667.333 333.997 667.333C149.903 667.333 0.664062 518.096 0.664062 333.999C0.664062 315.59 15.5879 300.666 33.9974 300.666Z" fill="white"/>
</svg>
