<svg viewBox="0 0 401 401" fill="none" xmlns="http://www.w3.org/2000/svg">
    <path d="M200.5 401C311.233 401 401 311.233 401 200.5C401 89.7669 311.233 0 200.5 0C89.7669 0 0 89.7669 0 200.5C0 311.233 89.7669 401 200.5 401Z" fill="#FDDD4C"/>
    <path d="M295.519 231.008L278.935 189.321V176.598C278.698 152.84 268.906 131.716 253.286 116.178C238.406 101.376 218.163 91.8677 195.769 91V150.658C211.466 156.743 222.63 171.995 222.63 189.814C222.63 210.947 206.932 228.476 186.586 231.372C190.823 243.707 202.533 252.6 216.288 252.6H234.796C236.512 248.061 240.885 244.828 246.024 244.828C252.659 244.828 258.038 250.206 258.038 256.841C258.038 263.476 252.659 268.854 246.024 268.854C240.885 268.854 236.512 265.621 234.796 261.082H216.288C197.928 261.082 182.435 248.609 177.814 231.695C155.978 230.233 138.656 212.013 138.656 189.814C138.656 172.424 149.285 157.471 164.385 151.105V95.6101C130.412 107.332 106 139.756 106 177.835C106 202.699 116.416 225.112 133.096 240.938L133.042 308.071H228.037V291.107H245.007C263.737 291.107 278.935 275.983 278.935 257.178V240.214H289.114C293.911 240.214 297.299 235.475 295.519 231.008ZM255.142 198.648C249.989 198.648 245.819 194.461 245.819 189.288C245.819 184.115 249.989 179.928 255.142 179.928C260.295 179.928 264.465 184.115 264.465 189.288C264.466 194.461 260.295 198.648 255.142 198.648ZM159.862 189.814C159.862 178.355 169.185 169.033 180.643 169.033C192.102 169.033 201.424 178.355 201.424 189.814C201.424 201.273 192.102 210.595 180.643 210.595C169.185 210.595 159.862 201.273 159.862 189.814Z" fill="black"/>
</svg>
