<svg viewBox="0 0 798 774" fill="none" xmlns="http://www.w3.org/2000/svg">
<path d="M796.289 489.969C793.089 453.169 785.089 424.903 772.289 405.169C759.489 383.836 740.822 371.569 716.289 368.369C700.822 326.236 677.222 288.769 645.489 255.969C613.756 223.169 576.556 197.969 533.889 180.369C531.756 179.303 530.689 177.569 530.689 175.169C530.689 172.769 531.756 171.036 533.889 169.969C557.889 160.369 577.089 146.769 591.489 129.169C605.889 111.569 613.089 92.1026 613.089 70.7692C613.089 45.1692 602.422 22.2359 581.089 1.96923C579.489 -0.164103 577.489 -0.564103 575.089 0.769231C572.689 2.10256 572.022 3.8359 573.089 5.96923C579.489 18.2359 582.689 31.5692 582.689 45.9692C582.689 63.5692 577.089 79.3026 565.889 93.1692C555.756 105.436 540.556 117.169 520.289 128.369C492.556 143.303 462.956 149.169 431.489 145.969C420.822 144.903 409.889 144.369 398.689 144.369C351.222 144.369 305.622 154.503 261.889 174.769C219.756 193.969 182.956 220.503 151.489 254.369C120.022 288.236 96.5556 326.236 81.0889 368.369C56.5556 371.569 37.8889 383.836 25.0889 405.169C12.2889 424.903 4.28889 453.169 1.08889 489.969C-2.64444 531.569 3.22222 562.503 18.6889 582.769C32.5556 600.903 54.4222 610.769 84.2889 612.369C104.556 649.703 134.289 680.503 173.489 704.769C212.689 729.036 256.822 743.303 305.889 747.569C310.156 748.103 313.089 749.969 314.689 753.169C317.889 759.569 322.556 764.503 328.689 767.969C334.822 771.436 341.356 773.169 348.289 773.169H429.089C439.222 773.169 448.156 769.303 455.889 761.569C463.622 753.836 467.489 744.636 467.489 733.969C467.489 723.303 463.756 714.103 456.289 706.369C448.822 698.636 439.756 694.769 429.089 694.769H348.289C341.356 694.769 334.956 696.503 329.089 699.969C323.222 703.436 318.689 708.103 315.489 713.969C313.356 717.703 309.889 719.303 305.089 718.769C266.689 713.436 231.889 701.303 200.689 682.369C169.489 663.436 145.089 639.036 127.489 609.169C129.622 608.636 131.489 607.836 133.089 606.769C138.422 605.703 143.089 593.969 147.089 571.569C151.089 549.169 153.089 522.236 153.089 490.769C153.089 460.903 151.356 435.036 147.889 413.169C144.422 391.303 140.022 378.769 134.689 375.569C145.889 335.569 165.889 302.236 194.689 275.569C223.489 248.903 260.822 229.703 306.689 217.969C328.556 212.636 348.822 211.303 367.489 213.969C389.356 216.636 406.156 225.169 417.889 239.569C425.356 248.636 429.089 262.236 429.089 280.369C429.089 292.636 426.422 304.103 421.089 314.769C418.956 319.569 419.756 323.836 423.489 327.569C427.222 331.303 431.489 332.103 436.289 329.969C452.822 320.903 466.022 309.036 475.889 294.369C485.756 279.703 490.689 264.369 490.689 248.369C490.689 241.969 489.756 235.569 487.889 229.169C486.022 222.769 487.622 217.303 492.689 212.769C497.756 208.236 503.222 207.303 509.089 209.969C546.422 225.436 578.289 247.436 604.689 275.969C631.089 304.503 650.156 337.703 661.889 375.569C658.156 380.903 655.222 394.236 653.089 415.569C650.956 436.903 649.889 461.436 649.889 489.169C649.889 512.636 650.689 533.836 652.289 552.769C653.889 571.703 656.022 585.969 658.689 595.569C658.689 598.769 659.756 601.436 661.889 603.569L662.689 604.369C664.822 607.036 667.489 608.636 670.689 609.169C677.089 611.303 688.289 612.369 704.289 612.369C736.822 612.369 760.822 603.303 776.289 585.169C793.356 565.436 800.022 533.703 796.289 489.969ZM465.889 603.569H333.089C329.356 603.569 326.556 605.036 324.689 607.969C322.822 610.903 322.689 613.969 324.289 617.169C329.622 628.903 339.089 638.636 352.689 646.369C366.289 654.103 381.756 657.969 399.089 657.969C416.422 657.969 432.022 654.103 445.889 646.369C459.756 638.636 469.356 628.903 474.689 617.169C476.289 613.969 476.022 610.903 473.889 607.969C471.756 605.036 469.089 603.569 465.889 603.569ZM245.889 488.369C245.889 501.169 250.422 512.103 259.489 521.169C268.556 530.236 279.489 534.769 292.289 534.769C305.089 534.769 315.889 530.236 324.689 521.169C333.489 512.103 337.889 501.169 337.889 488.369C337.889 475.569 333.489 464.769 324.689 455.969C315.889 447.169 305.089 442.769 292.289 442.769C279.489 442.769 268.556 447.169 259.489 455.969C250.422 464.769 245.889 475.569 245.889 488.369ZM460.289 488.369C460.289 501.169 464.822 512.103 473.889 521.169C482.956 530.236 493.756 534.769 506.289 534.769C518.822 534.769 529.622 530.236 538.689 521.169C547.756 512.103 552.289 501.169 552.289 488.369C552.289 475.569 547.756 464.769 538.689 455.969C529.622 447.169 518.822 442.769 506.289 442.769C493.756 442.769 482.956 447.169 473.889 455.969C464.822 464.769 460.289 475.569 460.289 488.369Z" fill="white"/>
</svg>
