<svg viewBox="0 0 401 401" fill="none" xmlns="http://www.w3.org/2000/svg">
    <path d="M200.5 401C311.233 401 401 311.233 401 200.5C401 89.7669 311.233 0 200.5 0C89.7669 0 0 89.7669 0 200.5C0 311.233 89.7669 401 200.5 401Z" fill="#2E7D32"/>
    <path d="M92 133.683C92 125.022 98.0503 118 105.514 118H296.486C303.95 118 310 125.022 310 133.683C310 142.345 303.95 149.366 296.486 149.366H105.514C98.0503 149.366 92 142.345 92 133.683Z" fill="white"/>
    <path d="M92 199.531C92 190.869 98.0503 183.848 105.514 183.848H296.486C303.95 183.848 310 190.869 310 199.531C310 208.193 303.95 215.214 296.486 215.214H105.514C98.0503 215.214 92 208.193 92 199.531Z" fill="white"/>
    <path d="M92 265.373C92 256.711 98.0503 249.689 105.514 249.689H296.486C303.95 249.689 310 256.711 310 265.373C310 274.034 303.95 281.056 296.486 281.056H105.514C98.0503 281.056 92 274.034 92 265.373Z" fill="white"/>
</svg>
