<svg viewBox="0 0 121 48" fill="none" xmlns="http://www.w3.org/2000/svg">
<path d="M14.5 21.4877C8.1 27.0877 5.83333 35.4877 5.5 38.9877C2.7 44.9877 1.33333 37.8211 1 33.4878L3 25.4878C5.8 17.0878 13.1667 10.9878 16.5 8.98779C24.9 2.98784 33 6.15448 36 8.48779L61.5 30.4878C72.5 40 84.6667 35.6545 90 30.9878C93.6 28.5878 101.5 18.6545 105 13.9878C109 9 106.5 10 104 10.4878L89.5 13.9878C79.5 16.7878 80.3333 15.4878 82 14.4878L105 2.98775C111 -0.612254 114.833 1.48775 116 2.98775C119.6 5.78775 120 20.4877 120 27.4877C119.5 35 114.5 29 113.5 26.5C112.5 24 112.5 24 112 22.5C111 18.5 109.5 21.1544 108.5 22.9877C107.3 25.3877 102.333 31.3211 100 33.9877C95.2 38.7877 89 42.3211 86.5 43.4877C80.1 47.4877 71 47.5 66 45.4877C61.5 44 58.5 40.5 54 36.9877L46 30.4877L38.5 23.4877L30 16.4877C26.4 15.2877 23.1667 15.9877 22 16.4877C20 16.8877 16.1667 19.9877 14.5 21.4877Z" fill="#255C3B" stroke="#EEEDE8"/>
</svg>
