<svg viewBox="0 0 401 401" fill="none" xmlns="http://www.w3.org/2000/svg">
    <path d="M200.5 401C311.233 401 401 311.233 401 200.5C401 89.7669 311.233 0 200.5 0C89.7669 0 0 89.7669 0 200.5C0 311.233 89.7669 401 200.5 401Z" fill="#0F287F"/>
    <path d="M188.609 105H110.13C107.859 105 106 106.859 106 109.13V187.609C106 189.88 107.859 191.739 110.13 191.739H188.609C190.88 191.739 192.739 189.88 192.739 187.609V109.13C192.739 106.859 190.88 105 188.609 105ZM175.185 174.185H123.554V122.554H175.185V174.185ZM291.87 105H213.391C211.12 105 209.261 106.859 209.261 109.13V187.609C209.261 189.88 211.12 191.739 213.391 191.739H291.87C294.141 191.739 296 189.88 296 187.609V109.13C296 106.859 294.141 105 291.87 105ZM278.446 174.185H226.815V122.554H278.446V174.185ZM188.609 208.261H110.13C107.859 208.261 106 210.12 106 212.391V290.87C106 293.141 107.859 295 110.13 295H188.609C190.88 295 192.739 293.141 192.739 290.87V212.391C192.739 210.12 190.88 208.261 188.609 208.261ZM175.185 277.446H123.554V225.815H175.185V277.446ZM291.87 208.261H213.391C211.12 208.261 209.261 210.12 209.261 212.391V290.87C209.261 293.141 211.12 295 213.391 295H291.87C294.141 295 296 293.141 296 290.87V212.391C296 210.12 294.141 208.261 291.87 208.261ZM278.446 277.446H226.815V225.815H278.446V277.446Z" fill="white"/>
</svg>
