<svg viewBox="0 0 404 386" fill="none" xmlns="http://www.w3.org/2000/svg">
    <path d="M91.8007 125.424V385.952H5.04912V125.424H91.8007ZM97.3162 44.9918C97.3322 45.4582 97.3483 46.0049 97.3483 46.5677C97.3483 58.6116 92.2349 69.4495 84.0662 77.0393L84.0341 77.0554C75.2705 85.0632 63.5482 89.9676 50.6681 89.9676C49.8802 89.9676 49.0762 89.9515 48.2882 89.9194H48.4008H47.8702C47.2109 89.9515 46.439 89.9676 45.6672 89.9676C33.0605 89.9676 21.6115 85.0471 13.1052 77.0393L13.1213 77.0554C5.01696 69.2083 0 58.2418 0 46.1014C0 45.7154 -1.87196e-09 45.3295 0.01608 44.9275V44.9918C-1.87196e-09 44.6542 0 44.2682 0 43.8823C0 31.6294 5.20992 20.5985 13.5233 12.864L13.5554 12.8479C22.303 4.88832 33.9931 0 46.8089 0C47.5486 0 48.2722 0.01608 49.0118 0.04824H48.9154C49.6068 0.01608 50.3947 0 51.2148 0C63.8376 0 75.3348 4.87224 83.9215 12.8318L83.8894 12.7997C92.1706 20.7914 97.3162 31.9831 97.3162 44.3808V45.0562V45.024V44.9918ZM403.833 236.665V385.952H317.355V246.619C317.435 245.349 317.467 243.869 317.467 242.39C317.467 227.982 313.464 214.523 306.501 203.042L306.694 203.38C299.828 193.796 288.732 187.638 276.206 187.638C275.241 187.638 274.277 187.67 273.312 187.75H273.44C273.006 187.734 272.508 187.718 272.009 187.718C262.04 187.718 252.874 191.143 245.622 196.884L245.718 196.819C238.434 202.721 232.726 210.262 229.124 218.929L228.995 219.299C227.13 225.007 226.069 231.568 226.069 238.386C226.069 239.158 226.085 239.93 226.117 240.702V240.589V385.984H139.639C139.992 316.058 140.169 259.36 140.169 215.89C140.169 172.42 140.084 146.483 139.912 138.079L139.655 125.456H226.133V163.308H225.602C229.044 157.761 232.597 152.953 236.505 148.451L236.376 148.595C240.894 143.627 245.751 139.14 250.977 135.12L251.234 134.927C257.73 129.926 265.352 126.003 273.617 123.607L274.1 123.494C282.751 120.906 292.704 119.41 302.995 119.41H304.266H304.201C305.343 119.362 306.678 119.33 308.012 119.33C335.043 119.33 359.388 130.811 376.449 149.174L376.497 149.238C394.743 169.135 403.865 198.272 403.865 236.649L403.833 236.665Z" fill="black"/>
</svg>
