<svg viewBox="0 0 401 401" fill="none" xmlns="http://www.w3.org/2000/svg">
    <path d="M200.5 401C311.233 401 401 311.233 401 200.5C401 89.7669 311.233 0 200.5 0C89.7669 0 0 89.7669 0 200.5C0 311.233 89.7669 401 200.5 401Z" fill="#EA4335"/>
    <path d="M195.336 87.3632C198.604 87.0908 201.782 87 205.051 87C264.156 89.179 311.639 136.572 314 195.677V284.925C313.909 301.085 300.744 314.068 284.674 313.978C269.966 311.708 258.708 299.723 257.346 284.925V195.677C254.895 164.536 227.658 141.202 196.516 143.654C196.153 143.654 195.79 143.744 195.427 143.744" fill="white" fill-opacity="0.72"/>
    <path d="M314.007 285.56C314.007 301.177 301.296 313.888 285.679 313.888C270.063 313.888 257.352 301.177 257.352 285.56C257.352 269.944 270.063 257.232 285.679 257.232C301.296 257.232 314.007 269.944 314.007 285.56Z" fill="white"/>
    <path d="M196.948 312.984C213.018 313.166 226.183 300.364 226.364 284.294C226.364 284.203 226.364 284.203 226.364 284.112C225.91 268.496 212.836 256.149 197.22 256.603C197.039 256.603 196.766 256.603 196.585 256.603C165.625 254.242 142.292 227.368 144.471 196.317V195.863C146.741 167.9 168.984 145.837 196.948 143.749C212.564 144.385 225.729 132.219 226.364 116.603C226.364 116.421 226.364 116.33 226.364 116.149C226.183 100.079 213.018 87.0957 196.948 87.2773H194.951C134.756 90.0918 87.3632 139.482 87 199.767V200.221C87 270.948 149.01 313.075 195.223 313.075H196.948V312.984Z" fill="white"/>
</svg>
