<svg viewBox="0 0 800 800" fill="none" xmlns="http://www.w3.org/2000/svg">
<g clip-path="url(#clip0_113_42)">
<path d="M400 0C179.094 0 0 179.094 0 400C0 620.906 179.094 800 400 800C620.906 800 800 620.906 800 400C800 179.094 620.906 0 400 0ZM269.08 65.0141C230.12 107.388 199.267 168.334 180.4 240.002H77.7328C117.467 160.533 185.733 97.6938 269.08 65.0141ZM40 400C40 357.814 47.9328 317.614 61.3469 280H171.494C164.294 317.959 160 358.067 160 400C160 441.933 164.294 482.041 171.48 520H61.3469C47.9328 482.386 40 442.188 40 400ZM77.7328 560H180.4C199.28 631.667 230.12 692.612 269.08 734.986C185.733 702.306 117.467 639.467 77.7328 560ZM380 758.106C311.547 745.212 252.067 667.106 221.627 560H380V758.106ZM380 520H212.094C204.4 482.241 200 441.88 200 400C200 358.12 204.4 317.759 212.094 280H380V520ZM380 240H221.627C252.067 132.894 311.547 54.7859 380 41.8938V240ZM722.267 240H619.6C600.72 168.333 569.88 107.386 530.92 65.0125C614.267 97.6938 682.533 160.533 722.267 240ZM420 41.8938C488.453 54.7875 547.933 132.894 578.373 240H420V41.8938ZM420 280H587.906C595.6 317.759 600 358.12 600 400C600 441.88 595.6 482.241 587.906 520H420V280ZM420 758.106V560H578.373C547.933 667.106 488.453 745.214 420 758.106ZM530.92 734.986C569.88 692.6 600.72 631.666 619.6 560H722.267C682.533 639.467 614.267 702.306 530.92 734.986ZM628.506 520C635.706 482.041 640 441.933 640 400C640 358.067 635.706 317.959 628.52 280H738.667C752.067 317.614 760 357.814 760 400C760 442.188 752.067 482.386 738.653 520H628.506Z" fill="#2B117F"/>
</g>
<defs>
<clipPath id="clip0_113_42">
<rect width="800" height="800" fill="white"/>
</clipPath>
</defs>
</svg>
