<svg viewBox="0 0 700 700" fill="none" xmlns="http://www.w3.org/2000/svg">
    <path d="M487.5 200H212.5C205.596 200 200 205.596 200 212.5V487.5C200 494.404 205.596 500 212.5 500H487.5C494.404 500 500 494.404 500 487.5V212.5C500 205.596 494.404 200 487.5 200Z" fill="white"/>
    <path d="M675 250C681.63 250 687.989 247.366 692.678 242.678C697.366 237.989 700 231.63 700 225C700 218.37 697.366 212.011 692.678 207.322C687.989 202.634 681.63 200 675 200H650V150C649.971 123.487 639.426 98.0687 620.679 79.3213C601.931 60.5739 576.513 50.029 550 50H500V25C500 18.3696 497.366 12.0107 492.678 7.32233C487.989 2.63392 481.63 0 475 0C468.37 0 462.011 2.63392 457.322 7.32233C452.634 12.0107 450 18.3696 450 25V50H375V25C375 18.3696 372.366 12.0107 367.678 7.32233C362.989 2.63392 356.63 0 350 0C343.37 0 337.011 2.63392 332.322 7.32233C327.634 12.0107 325 18.3696 325 25V50H250V25C250 18.3696 247.366 12.0107 242.678 7.32233C237.989 2.63392 231.63 0 225 0C218.37 0 212.011 2.63392 207.322 7.32233C202.634 12.0107 200 18.3696 200 25V50H150C123.487 50.029 98.0687 60.5739 79.3213 79.3213C60.5739 98.0687 50.029 123.487 50 150V200H25C18.3696 200 12.0107 202.634 7.32233 207.322C2.63392 212.011 0 218.37 0 225C0 231.63 2.63392 237.989 7.32233 242.678C12.0107 247.366 18.3696 250 25 250H50V325H25C18.3696 325 12.0107 327.634 7.32233 332.322C2.63392 337.011 0 343.37 0 350C0 356.63 2.63392 362.989 7.32233 367.678C12.0107 372.366 18.3696 375 25 375H50V450H25C18.3696 450 12.0107 452.634 7.32233 457.322C2.63392 462.011 0 468.37 0 475C0 481.63 2.63392 487.989 7.32233 492.678C12.0107 497.366 18.3696 500 25 500H50V550C50.029 576.513 60.5739 601.931 79.3213 620.679C98.0687 639.426 123.487 649.971 150 650H200V675C200 681.63 202.634 687.989 207.322 692.678C212.011 697.366 218.37 700 225 700C231.63 700 237.989 697.366 242.678 692.678C247.366 687.989 250 681.63 250 675V650H325V675C325 681.63 327.634 687.989 332.322 692.678C337.011 697.366 343.37 700 350 700C356.63 700 362.989 697.366 367.678 692.678C372.366 687.989 375 681.63 375 675V650H450V675C450 681.63 452.634 687.989 457.322 692.678C462.011 697.366 468.37 700 475 700C481.63 700 487.989 697.366 492.678 692.678C497.366 687.989 500 681.63 500 675V650H550C576.513 649.971 601.931 639.426 620.679 620.679C639.426 601.931 649.971 576.513 650 550V500H675C681.63 500 687.989 497.366 692.678 492.678C697.366 487.989 700 481.63 700 475C700 468.37 697.366 462.011 692.678 457.322C687.989 452.634 681.63 450 675 450H650V375H675C681.63 375 687.989 372.366 692.678 367.678C697.366 362.989 700 356.63 700 350C700 343.37 697.366 337.011 692.678 332.322C687.989 327.634 681.63 325 675 325H650V250H675ZM550 500C550 513.261 544.732 525.979 535.355 535.355C525.979 544.732 513.261 550 500 550H200C186.739 550 174.021 544.732 164.645 535.355C155.268 525.979 150 513.261 150 500V200C150 186.739 155.268 174.021 164.645 164.645C174.021 155.268 186.739 150 200 150H500C513.261 150 525.979 155.268 535.355 164.645C544.732 174.021 550 186.739 550 200V500Z" fill="white"/>
</svg>
