<svg viewBox="0 0 460 514" fill="none" xmlns="http://www.w3.org/2000/svg">
<path d="M451.485 419.52C396.944 394.889 394.869 289.165 394.829 286.497V215.569C394.829 147.304 353.115 88.6038 293.837 63.6097C293.71 28.5129 265.125 0 230.002 0C194.878 0 166.294 28.5146 166.166 63.6081C106.891 88.6021 65.1753 147.303 65.1753 215.567V286.496C65.1367 289.163 63.0603 394.888 8.51762 419.518C2.30432 422.325 -1.11052 429.089 0.32603 435.754C1.7609 442.42 7.65553 447.181 14.4743 447.181H152.745C155.58 462.774 162.953 477.281 174.23 489.03C189.207 504.635 209.015 513.229 229.999 513.229C250.986 513.229 270.793 504.635 285.769 489.03C297.047 477.28 304.42 462.773 307.253 447.181H445.524C452.343 447.181 458.237 442.421 459.673 435.754C461.111 429.089 457.698 422.326 451.485 419.52ZM379.638 368.872C385.372 386.255 393.491 403.711 405.003 418.238H54.9987C66.5095 403.713 74.6282 386.257 80.3618 368.872H379.638ZM230.002 28.9448C245.889 28.9448 259.322 39.6203 263.525 54.172C252.697 51.9262 241.485 50.742 230.002 50.742C218.519 50.742 207.306 51.9253 196.478 54.172C200.682 39.6212 214.115 28.9448 230.002 28.9448ZM94.1201 286.585V215.567C94.1201 140.642 155.076 79.6868 230.002 79.6868C304.928 79.6868 365.883 140.642 365.883 215.567V286.703C365.903 288.88 366.241 311.76 372.008 339.926H87.9923C93.762 311.733 94.1025 288.813 94.1201 286.585ZM230.002 484.287C207.912 484.287 188.633 468.36 182.445 447.182H277.557C271.369 468.36 252.093 484.287 230.002 484.287Z" fill="white"/>
</svg>
