<svg viewBox="0 0 401 401" fill="none" xmlns="http://www.w3.org/2000/svg">
    <path d="M200.5 401C311.233 401 401 311.233 401 200.5C401 89.7669 311.233 0 200.5 0C89.7669 0 0 89.7669 0 200.5C0 311.233 89.7669 401 200.5 401Z" fill="#FDDD4C"/>
    <path d="M222.496 309.32V309.312L222.499 286.013C250.123 282.93 277 265.479 277 232.35C277 187.336 235.144 182.174 204.572 178.41C185.025 176.074 170.064 173.363 170.064 161.521C170.064 145.057 193.27 143.283 203.249 143.283C218.061 143.283 233.864 150.245 239.233 159.131L240.793 161.715L271.501 147.505L269.981 144.408C258.538 121.014 238.031 114.245 222.491 111.513V91H186.533V111.425C153.058 116.363 133.179 134.942 133.179 161.521C133.179 204.861 172.531 209.259 201.241 212.478C226.827 215.495 238.739 221.817 238.739 232.35C238.739 252.472 210.872 254.044 202.329 254.044C183.314 254.044 164.98 244.556 159.678 231.959L158.361 228.849L125 242.992L126.33 246.102C136.209 269.225 157.525 283.714 186.539 287.141V309.32H222.496Z" fill="black"/>
</svg>
