<svg viewBox="0 0 42 42" fill="none" xmlns="http://www.w3.org/2000/svg">
<g clip-path="url(#clip0_99_51)">
<path d="M34.125 0H7.875C3.52734 0 0 3.52734 0 7.875V34.125C0 38.4727 3.52734 42 7.875 42H34.125C38.4727 42 42 38.4727 42 34.125V7.875C42 3.52734 38.4727 0 34.125 0ZM33.0586 22.6217H29.1274V37.1665H22.5649V22.6217H20.0156V17.7187H22.5649V14.5953C22.5649 10.5063 24.2623 8.07692 29.0895 8.07692H33.9736V12.9609H31.134C29.2599 12.9609 29.1337 13.655 29.1337 14.9675L29.1274 17.7187H33.595L33.0586 22.6217Z" fill="#CBCACC"/>
</g>
<defs>
<clipPath id="clip0_99_51">
<rect width="42" height="42" fill="white"/>
</clipPath>
</defs>
</svg>
