<svg viewBox="0 0 909 909" fill="none" xmlns="http://www.w3.org/2000/svg">
    <path d="M399.499 676.121H251.5C246.593 676.121 241.888 674.172 238.418 670.703C234.949 667.233 233 662.528 233 657.621C233 652.715 234.949 648.009 238.418 644.54C241.888 641.07 246.593 639.121 251.5 639.121H399.499C404.405 639.121 409.111 641.07 412.58 644.54C416.05 648.009 417.999 652.715 417.999 657.621C417.999 662.528 416.05 667.233 412.58 670.703C409.111 674.172 404.405 676.121 399.499 676.121ZM362.499 602.122H251.5C246.593 602.122 241.888 600.173 238.418 596.703C234.949 593.234 233 588.528 233 583.622C233 578.715 234.949 574.01 238.418 570.54C241.888 567.071 246.593 565.122 251.5 565.122H362.499C367.406 565.122 372.111 567.071 375.581 570.54C379.05 574.01 380.999 578.715 380.999 583.622C380.999 588.528 379.05 593.234 375.581 596.703C372.111 600.173 367.406 602.122 362.499 602.122ZM325.499 528.122H251.5C246.593 528.122 241.888 526.173 238.418 522.704C234.949 519.234 233 514.529 233 509.622C233 504.716 234.949 500.01 238.418 496.541C241.888 493.071 246.593 491.122 251.5 491.122H325.499C330.406 491.122 335.111 493.071 338.581 496.541C342.05 500.01 343.999 504.716 343.999 509.622C343.999 514.529 342.05 519.234 338.581 522.704C335.111 526.173 330.406 528.122 325.499 528.122ZM473.498 675.289C468.592 675.507 463.8 673.767 460.176 670.452C456.552 667.137 454.394 662.518 454.175 657.612C453.957 652.706 455.697 647.913 459.012 644.29C462.327 640.666 466.945 638.507 471.852 638.289C506.862 635.085 540.235 621.973 568.061 600.486C595.887 578.999 617.015 550.029 628.97 516.967C640.925 483.906 643.211 448.122 635.562 413.808C627.913 379.494 610.644 348.069 585.779 323.216C560.914 298.362 529.482 281.108 495.164 273.474C460.846 265.841 425.064 268.144 392.008 280.114C358.952 292.084 329.991 313.225 308.517 341.061C287.043 368.897 273.946 402.276 270.758 437.288C270.54 439.707 269.846 442.06 268.719 444.212C267.591 446.364 266.05 448.273 264.184 449.829C262.319 451.385 260.165 452.559 257.845 453.283C255.526 454.007 253.087 454.267 250.667 454.049C248.248 453.83 245.895 453.137 243.743 452.009C241.591 450.881 239.682 449.34 238.126 447.474C236.57 445.609 235.396 443.455 234.672 441.136C233.948 438.817 233.688 436.377 233.906 433.958C239.066 377.039 265.978 324.303 309.041 286.728C352.103 249.152 407.999 229.631 465.091 232.23C522.184 234.828 576.075 259.345 615.547 300.677C655.018 342.008 677.029 396.971 676.997 454.123C677.281 509.592 656.674 563.135 619.276 604.101C581.877 645.068 530.429 670.456 475.163 675.215C474.608 675.27 474.035 675.289 473.498 675.289ZM454.999 343.123C450.092 343.123 445.387 345.072 441.917 348.542C438.448 352.011 436.499 356.717 436.499 361.623V454.123C436.5 459.029 438.45 463.733 441.919 467.202L497.419 522.702C500.908 526.072 505.581 527.936 510.432 527.894C515.282 527.852 519.922 525.906 523.352 522.476C526.782 519.046 528.728 514.406 528.77 509.556C528.812 504.705 526.948 500.032 523.578 496.543L473.498 446.464V361.623C473.498 356.717 471.549 352.011 468.08 348.542C464.611 345.072 459.905 343.123 454.999 343.123Z" fill="black"/>
    <rect x="20.5" y="20.5" width="868" height="868" rx="113.5" stroke="#D1D3D7" stroke-width="41"/>
</svg>
