<svg viewBox="0 0 800 601" fill="none" xmlns="http://www.w3.org/2000/svg">
<path d="M146.153 431.462H346.153C358.461 431.462 369.23 420.692 369.23 408.385V46.8462C369.23 20.6924 341.538 0.692383 319.999 0.692383H146.153C133.845 0.692383 123.076 11.4616 123.076 23.7693V385.308V408.385C123.076 420.692 133.845 431.462 146.153 431.462Z" fill="#1A0A4C"/>
<path d="M756.923 71.4615C747.692 68.3846 738.462 76.0769 738.462 86.8461V469.923C738.462 482.231 727.692 493 715.385 493H84.6154C72.3077 493 61.5385 482.231 61.5385 469.923V88.3846C61.5385 77.6154 49.2308 69.9231 40 74.5384C16.9231 85.3077 0 109.923 0 139.154V493C0 526.846 27.6923 554.538 61.5385 554.538H315.385C327.692 554.538 338.462 565.308 338.462 577.615C338.462 589.923 349.231 600.692 361.538 600.692H438.462C450.769 600.692 461.538 589.923 461.538 577.615C461.538 565.308 472.308 554.538 484.615 554.538H738.462C772.308 554.538 800 526.846 800 493V139.154C800 106.846 789.231 79.1538 756.923 71.4615Z" fill="#1A0A4C"/>
<path d="M453.846 431.462H653.846C666.154 431.462 676.923 420.692 676.923 408.385V385.308V23.7693C676.923 11.4616 666.154 0.692383 653.846 0.692383H480C456.923 0.692383 430.77 20.6924 430.77 46.8462V408.385C430.77 420.692 441.539 431.462 453.846 431.462Z" fill="#1A0A4C"/>
</svg>
