<svg viewBox="0 0 909 909" fill="none" xmlns="http://www.w3.org/2000/svg">
    <path d="M233 320.8C233 287.389 250.316 252.424 277.4 232C277.4 250.759 292.718 276.4 321.8 276.4C358.585 276.4 388.4 306.215 388.4 343C388.4 351.569 386.624 359.694 383.694 367.198C400.122 380.385 416.461 393.616 432.312 407.38L386.18 453.556C372.416 437.661 359.229 421.277 346.065 404.894C338.517 407.824 330.391 409.6 321.8 409.6C272.738 409.6 233 369.862 233 320.8ZM502.774 472.826L532.522 443.078C545.998 449.826 561.005 454 577.1 454C632.267 454 677 409.267 677 354.1C677 338.005 672.826 323.02 666.055 309.545L588.2 387.4L543.8 343L621.655 265.145C608.18 258.374 593.195 254.2 577.1 254.2C521.933 254.2 477.2 298.933 477.2 354.1C477.2 370.195 481.374 385.18 488.145 398.655L255.2 631.6L299.6 676L451.626 523.974C493.473 566.776 537.628 607.291 584.315 644.964L615.95 670.45L649.25 637.15L623.72 605.515C586.091 558.828 545.576 514.673 502.774 472.826Z" fill="black"/>
    <rect x="20.5" y="20.5" width="868" height="868" rx="113.5" stroke="#D1D3D7" stroke-width="41"/>
</svg>
