<svg viewBox="0 0 401 401" fill="none" xmlns="http://www.w3.org/2000/svg">
  <circle cx="200.5" cy="200.5" r="200.5" fill="#0F287F"/>
  <path d="M87.1962 211.81L151.216 241.581C152.871 242.347 154.633 242.735 156.454 242.735C158.827 242.735 161.14 242.062 163.15 240.783C166.75 238.482 168.9 234.562 168.9 230.296V229.969C168.9 225.147 166.074 220.718 161.699 218.686L121.659 200.082L161.699 181.476C166.074 179.443 168.9 175.015 168.9 170.195V169.871C168.9 165.598 166.75 161.676 163.15 159.384C161.16 158.112 158.841 157.439 156.447 157.439C154.642 157.439 152.831 157.836 151.211 158.589L87.1952 188.357C82.8243 190.391 80 194.82 80 199.639V200.529C79.999 205.34 82.8212 209.768 87.1962 211.81Z" fill="white"/>
  <path d="M169.47 272.449C171.805 275.645 175.561 277.554 179.517 277.554H179.838C185.269 277.554 190.028 274.077 191.683 268.91L233.854 138.24C235.064 134.469 234.393 130.306 232.057 127.104C229.722 123.908 225.966 122 222.009 122H221.689C216.256 122 211.492 125.476 209.837 130.642L167.662 261.322C166.461 265.099 167.137 269.255 169.47 272.449Z" fill="white"/>
  <path d="M232.629 170.194C232.629 175.009 235.454 179.438 239.829 181.482L279.869 200.082L239.829 218.684C235.456 220.718 232.629 225.147 232.629 229.967V230.294C232.629 234.561 234.778 238.481 238.381 240.783C240.385 242.06 242.698 242.735 245.074 242.735C246.894 242.735 248.654 242.347 250.321 241.577L314.336 211.807C318.707 209.768 321.531 205.34 321.531 200.527V199.637C321.531 194.818 318.707 190.389 314.332 188.355L250.317 158.587C248.702 157.836 246.894 157.439 245.088 157.439C242.698 157.439 240.376 158.11 238.386 159.38C234.783 161.676 232.632 165.597 232.632 169.87V170.193H232.629V170.194Z" fill="white"/>
</svg>
