<svg viewBox="0 0 423 423" fill="none" xmlns="http://www.w3.org/2000/svg">
    <circle cx="211.5" cy="211.5" r="211.5" fill="#4A5362"/>
    <path fill-rule="evenodd" clip-rule="evenodd" d="M423 211.5C423 275.233 394.811 332.381 350.219 371.157C313.086 403.449 264.576 423 211.5 423C158.424 423 109.915 403.449 72.7807 371.157C28.1898 332.381 0 275.233 0 211.5C0 94.6917 94.6917 0 211.5 0C328.307 0 423 94.6917 423 211.5ZM211.5 359.55C248.654 359.55 282.611 345.864 308.604 323.261C311.597 320.657 314.484 317.937 317.256 315.105C294.395 278.129 255.562 253.8 211.5 253.8C167.439 253.8 128.605 278.129 105.743 315.105C108.518 317.937 111.404 320.657 114.397 323.261C140.391 345.864 174.348 359.55 211.5 359.55ZM211.5 211.5C246.543 211.5 274.95 183.093 274.95 148.05C274.95 113.008 246.543 84.6 211.5 84.6C176.457 84.6 148.05 113.008 148.05 148.05C148.05 183.093 176.457 211.5 211.5 211.5Z" fill="#E9E6F2"/>
</svg>
