<svg viewBox="0 0 401 401" fill="none" xmlns="http://www.w3.org/2000/svg">
    <path d="M200.5 401C311.233 401 401 311.233 401 200.5C401 89.7669 311.233 0 200.5 0C89.7669 0 0 89.7669 0 200.5C0 311.233 89.7669 401 200.5 401Z" fill="#FDDD4C"/>
    <path d="M282.269 111.064L204.01 91.1181C203.145 90.9606 202.259 90.9606 201.394 91.1181C200.671 91.009 199.937 91.009 199.214 91.1181L120.519 111.064C115.53 112.31 111.141 115.279 108.129 119.448C105.117 123.617 103.677 128.716 104.061 133.844L108.639 193.901C110.472 217.724 118.797 240.59 132.708 260.017C146.62 279.443 165.588 294.688 187.552 304.095L197.143 308.237C198.352 308.741 199.649 309 200.958 309C202.268 309 203.564 308.741 204.773 308.237L214.364 304.095C236.329 294.688 255.296 279.443 269.208 260.017C283.119 240.59 291.444 217.724 293.277 193.901L297.855 133.844C298.285 128.832 296.967 123.825 294.126 119.673C291.286 115.521 287.096 112.48 282.269 111.064ZM241.831 175.154L198.233 218.752C197.22 219.773 196.014 220.584 194.686 221.138C193.358 221.691 191.933 221.976 190.494 221.976C189.056 221.976 187.631 221.691 186.303 221.138C184.975 220.584 183.769 219.773 182.756 218.752L160.957 196.953C158.904 194.9 157.751 192.117 157.751 189.214C157.751 186.311 158.904 183.528 160.957 181.475C163.009 179.423 165.793 178.27 168.695 178.27C171.598 178.27 174.382 179.423 176.434 181.475L190.494 195.645L226.354 159.676C228.406 157.624 231.19 156.471 234.093 156.471C236.995 156.471 239.779 157.624 241.831 159.676C243.884 161.729 245.037 164.512 245.037 167.415C245.037 170.317 243.884 173.101 241.831 175.154Z" fill="#231F20"/>
</svg>
