<svg viewBox="0 0 401 401" fill="none" xmlns="http://www.w3.org/2000/svg">
    <path d="M200.5 401C311.233 401 401 311.233 401 200.5C401 89.7669 311.233 0 200.5 0C89.7669 0 0 89.7669 0 200.5C0 311.233 89.7669 401 200.5 401Z" fill="#633AE5"/>
    <path fill-rule="evenodd" clip-rule="evenodd" d="M163.711 157.32C195.585 157.32 221.421 183.16 221.421 215.031C221.421 246.905 195.581 272.741 163.711 272.741C131.84 272.745 106 246.905 106 215.031C106 183.16 131.84 157.32 163.711 157.32ZM234.417 183.259C237.472 183.259 240.235 184.498 242.238 186.5C244.24 188.503 245.479 191.266 245.479 194.321C245.479 197.376 244.24 200.139 242.238 202.141C240.235 204.144 237.472 205.383 234.417 205.383C231.362 205.383 228.599 204.144 226.597 202.141C224.594 200.139 223.359 197.376 223.359 194.321C223.359 191.266 224.598 188.503 226.597 186.5C228.599 184.498 231.362 183.259 234.417 183.259ZM262.989 248.254H273.538V251.401H262.989V248.254ZM269.837 221.362V225.063H273.538V228.209H269.837V231.91H266.691V228.209H262.989V225.063H266.691V221.362H269.837ZM197.781 142.044H271.057C273.314 142.044 275.366 142.968 276.848 144.45C278.334 145.935 279.253 147.984 279.253 150.241V164.479C279.253 166.737 278.33 168.789 276.848 170.271C275.362 171.756 273.314 172.676 271.057 172.676H208.615C219.046 183.73 225.442 198.63 225.442 215.027C225.442 215.073 225.442 215.114 225.442 215.156C225.791 214.67 226.179 214.214 226.601 213.792C228.603 211.789 231.366 210.551 234.421 210.551C237.476 210.551 240.239 211.789 242.241 213.792C244.244 215.795 245.483 218.557 245.483 221.612C245.483 224.668 244.244 227.43 242.241 229.433C240.239 231.435 237.476 232.674 234.421 232.674C231.366 232.674 228.603 231.435 226.601 229.433C225.7 228.532 224.955 227.48 224.408 226.317C220.467 247.639 205.568 265.115 185.766 272.692C186.138 272.722 186.511 272.738 186.891 272.738H281.948H281.959H281.967C285.82 272.734 289.327 271.153 291.869 268.607C294.419 266.057 296 262.546 296 258.681C296 220.605 296 181.671 296 141.056C296 137.192 294.419 133.68 291.869 131.131C289.32 128.581 285.808 127 281.944 127H199.514H186.887C183.022 127 179.511 128.581 176.961 131.131C174.411 133.68 172.831 137.192 172.831 141.056V153.969C178.724 154.843 184.348 156.549 189.577 158.966V150.233C189.577 147.976 190.501 145.924 191.983 144.442C193.472 142.964 195.524 142.044 197.781 142.044ZM279.253 225.865C279.253 222.809 278.015 220.047 276.012 218.044C274.009 216.042 271.247 214.803 268.192 214.803C265.136 214.803 262.374 216.042 260.371 218.044C258.369 220.047 257.13 222.809 257.13 225.865V248.923C257.13 251.978 258.369 254.741 260.371 256.743C262.374 258.746 265.136 259.985 268.192 259.985C271.247 259.985 274.009 258.746 276.012 256.743C278.015 254.741 279.253 251.978 279.253 248.923V225.865ZM234.417 237.861C237.472 237.861 240.235 239.1 242.238 241.103C244.24 243.105 245.479 245.868 245.479 248.923C245.479 251.978 244.24 254.741 242.238 256.743C240.235 258.746 237.472 259.985 234.417 259.985C231.362 259.985 228.599 258.746 226.597 256.743C224.594 254.741 223.359 251.978 223.359 248.923C223.359 245.868 224.598 243.105 226.597 241.103C228.599 239.1 231.362 237.861 234.417 237.861ZM268.192 183.259C271.247 183.259 274.009 184.498 276.012 186.5C278.015 188.503 279.253 191.266 279.253 194.321C279.253 197.376 278.015 200.139 276.012 202.141C274.009 204.144 271.247 205.383 268.192 205.383C265.136 205.383 262.374 204.144 260.371 202.141C258.369 200.139 257.13 197.376 257.13 194.321C257.13 191.266 258.369 188.503 260.371 186.5C262.374 184.498 265.14 183.259 268.192 183.259ZM163.711 207.001C163.129 207.001 162.563 207.062 162.02 207.18L155.978 196.715C155.297 195.541 153.793 195.138 152.615 195.818C151.44 196.498 151.038 198.003 151.718 199.181L157.756 209.642C156.464 211.067 155.677 212.956 155.677 215.031C155.677 219.465 159.272 223.06 163.707 223.06C168.141 223.06 171.736 219.465 171.736 215.031C171.736 214.449 171.675 213.879 171.558 213.336L190.702 202.286C191.876 201.609 192.283 200.108 191.606 198.934C190.93 197.76 189.429 197.353 188.255 198.03L169.103 209.088C167.678 207.792 165.789 207.001 163.711 207.001ZM166.177 169.644V174.28C166.177 175.64 165.071 176.746 163.711 176.746C162.35 176.746 161.244 175.64 161.244 174.28V169.644C154.754 169.989 148.625 171.699 143.137 174.489L145.459 178.509C146.136 179.683 145.729 181.184 144.555 181.861C143.381 182.537 141.88 182.13 141.203 180.956L138.889 176.947C136.244 178.672 133.793 180.667 131.57 182.89C129.347 185.113 127.356 187.564 125.631 190.205L129.647 192.523C130.822 193.204 131.224 194.708 130.544 195.886C129.864 197.061 128.359 197.463 127.181 196.783L123.168 194.465C120.379 199.952 118.669 206.086 118.323 212.576H122.959C124.316 212.576 125.414 213.674 125.414 215.031C125.414 216.387 124.316 217.486 122.959 217.486H118.323C118.669 223.98 120.379 230.113 123.168 235.604L127.189 233.282C128.363 232.606 129.864 233.012 130.54 234.187C131.217 235.361 130.81 236.862 129.636 237.538L125.627 239.852C127.352 242.497 129.347 244.948 131.57 247.171C133.793 249.394 136.244 251.385 138.885 253.111L141.203 249.094C141.883 247.92 143.388 247.517 144.566 248.197C145.74 248.877 146.143 250.382 145.463 251.56L143.145 255.573C148.632 258.362 154.765 260.072 161.256 260.418V255.782C161.256 254.425 162.354 253.327 163.711 253.327C165.067 253.327 166.165 254.425 166.165 255.782V260.418C172.66 260.072 178.793 258.362 184.284 255.573L181.962 251.556C181.286 250.382 181.692 248.881 182.866 248.205C184.041 247.528 185.542 247.935 186.218 249.109L188.532 253.118C191.177 251.393 193.628 249.398 195.851 247.175C198.074 244.952 200.065 242.501 201.79 239.86L197.774 237.542C196.6 236.862 196.197 235.357 196.877 234.179C197.557 233.005 199.062 232.602 200.24 233.282L204.253 235.6C207.042 230.113 208.752 223.98 209.098 217.489H204.462C203.105 217.489 202.007 216.391 202.007 215.035C202.007 213.678 203.105 212.58 204.462 212.58H209.098C208.752 206.086 207.042 199.952 204.253 194.461L200.232 196.783C199.058 197.46 197.557 197.053 196.881 195.879C196.204 194.705 196.611 193.204 197.785 192.527L201.794 190.213C200.069 187.568 198.074 185.117 195.851 182.894C193.628 180.671 191.177 178.676 188.532 176.951L186.218 180.96C185.542 182.134 184.041 182.541 182.866 181.864C181.692 181.188 181.286 179.687 181.962 178.513L184.284 174.492C178.797 171.699 172.667 169.989 166.177 169.644Z" fill="white"/>
</svg>
