<svg viewBox="0 0 800 800" fill="none" xmlns="http://www.w3.org/2000/svg">
    <path d="M400 800C620.914 800 800 620.914 800 400C800 179.086 620.914 0 400 0C179.086 0 0 179.086 0 400C0 620.914 179.086 800 400 800Z" fill="#324A5E"/>
    <path d="M597.253 748.038C718.322 679.275 800 549.183 800 400C800 389.449 799.586 378.995 798.783 368.652L649.606 219.475L633.447 236.141L402.134 326.936L244.898 383.838L313.148 451.92L305.022 455.802L597.253 748.038Z" fill="#2B3B4E"/>
    <path d="M439.198 499.278V455.806H360.798V499.278C360.798 502.747 357.986 505.559 354.517 505.559H300.492V655.576H499.509V505.559H445.483C442.011 505.559 439.198 502.747 439.198 499.278Z" fill="#FED8B2"/>
    <path d="M499.509 505.559H445.484C442.015 505.559 439.202 502.747 439.202 499.278V455.806H399.105V655.576H499.512V505.559H499.509Z" fill="#EABE96"/>
    <path d="M269.683 396.045C286.987 396.045 301.014 382.018 301.014 364.714C301.014 347.41 286.987 333.383 269.683 333.383C252.379 333.383 238.352 347.41 238.352 364.714C238.352 382.018 252.379 396.045 269.683 396.045Z" fill="#FED8B2"/>
    <path d="M523.636 396.045C540.94 396.045 554.967 382.018 554.967 364.714C554.967 347.41 540.94 333.383 523.636 333.383C506.332 333.383 492.305 347.41 492.305 364.714C492.305 382.018 506.332 396.045 523.636 396.045Z" fill="#EABE96"/>
    <path d="M400.189 495.197H393.13C327.823 495.197 274.883 442.256 274.883 376.95V268.988C274.883 203.681 327.823 150.741 393.13 150.741H400.189C465.495 150.741 518.436 203.681 518.436 268.988V376.95C518.436 442.258 465.494 495.197 400.189 495.197Z" fill="#F4E3C3"/>
    <path d="M400.189 150.742H399.102V495.197H400.189C465.495 495.197 518.436 442.256 518.436 376.95V268.987C518.433 203.683 465.494 150.742 400.189 150.742Z" fill="#FED8B2"/>
    <path d="M339.26 362.992C345.986 362.992 351.438 357.54 351.438 350.814C351.438 344.088 345.986 338.636 339.26 338.636C332.534 338.636 327.082 344.088 327.082 350.814C327.082 357.54 332.534 362.992 339.26 362.992Z" fill="#59595B"/>
    <path d="M454.061 362.992C460.787 362.992 466.239 357.54 466.239 350.814C466.239 344.088 460.787 338.636 454.061 338.636C447.335 338.636 441.883 344.088 441.883 350.814C441.883 357.54 447.335 362.992 454.061 362.992Z" fill="#272525"/>
    <path d="M508.054 505.56H466.341C466.341 542.199 436.641 584.061 400.004 584.061C363.366 584.061 333.666 542.197 333.666 505.56H291.954C241.715 505.56 200.988 546.286 200.988 596.525V747.052C259.595 780.736 327.548 800 400.001 800C472.454 800 540.407 780.736 599.02 747.052V596.525C599.018 546.288 558.293 505.56 508.054 505.56Z" fill="#FD8469"/>
    <path d="M508.052 505.56H466.34C466.34 542.199 436.64 584.061 400.002 584.061C399.701 584.061 399.404 584.035 399.105 584.028V799.985C399.404 799.985 399.701 799.999 400.002 799.999C472.455 799.999 540.409 780.735 599.021 747.05V596.527C599.016 546.288 558.291 505.56 508.052 505.56Z" fill="#FC6F58"/>
    <path d="M396.659 450.609C374.716 450.609 356.871 432.761 356.871 410.822C356.871 407.101 359.885 404.087 363.605 404.087C367.326 404.087 370.34 407.101 370.34 410.822C370.34 425.334 382.149 437.141 396.659 437.141C411.17 437.141 422.977 425.331 422.977 410.822C422.977 407.101 425.991 404.087 429.712 404.087C433.432 404.087 436.446 407.101 436.446 410.822C436.446 432.762 418.599 450.609 396.659 450.609Z" fill="#FD8469"/>
    <path d="M436.447 410.823C436.447 407.103 433.433 404.089 429.712 404.089C425.992 404.089 422.978 407.103 422.978 410.823C422.978 424.512 412.47 435.783 399.102 437.022V450.49C419.903 449.214 436.447 431.937 436.447 410.823Z" fill="#FC6F58"/>
    <path d="M649.604 219.475C649.604 219.475 617.284 246.466 534.679 182.719C452.075 118.969 372.167 151.292 372.167 151.292C372.167 151.292 246.464 158.477 266.22 299.441C267.678 309.838 269.181 318.339 270.732 325.213C272.6 344.047 276.876 371.489 286.42 383.839C286.42 383.839 286.956 363.411 290.037 342.888C300.782 328.083 313.867 285.381 330.581 240.595C332.078 268.464 351.901 296.059 412.571 312.008C445.981 320.789 476.617 323.183 504.17 321.533C511.24 345.947 512.234 383.839 512.234 383.839C522.903 370.031 526.987 337.383 528.482 318.964C615.598 305.675 649.604 219.475 649.604 219.475Z" fill="#FFD15D"/>
    <path d="M534.678 182.715C481.483 141.662 429.439 140.461 399.102 144.803V308.048C403.358 309.433 407.823 310.758 412.57 312.004C445.98 320.786 476.616 323.179 504.169 321.529C511.239 345.944 512.233 383.836 512.233 383.836C522.902 370.028 526.986 337.379 528.481 318.961C615.595 305.673 649.605 219.47 649.605 219.47C649.605 219.47 617.283 246.464 534.678 182.715Z" fill="#F9B54C"/>
    <path d="M158.603 380L174.241 411.603L209.205 416.668L183.904 441.268L189.878 476L158.603 459.602L127.329 476L133.303 441.268L108 416.668L142.966 411.603L158.603 380Z" fill="#FFD15D"/>
    <path d="M158.312 380L174.039 411.603L209.204 416.668L183.758 441.268L189.766 476L158.312 459.602V380Z" fill="#F9B54C"/>
    <path d="M650.1 527L659.71 546.422L681.199 549.536L665.649 564.654L669.321 586L650.1 575.922L630.879 586L634.551 564.654L619 549.536L640.49 546.422L650.1 527Z" fill="#FFD15D"/>
    <path d="M649.922 527L659.587 546.422L681.199 549.536L665.56 564.654L669.253 586L649.922 575.922V527Z" fill="#F9B54C"/>
    <path d="M681.1 219L690.71 238.422L712.199 241.536L696.649 256.654L700.321 278L681.1 267.922L661.879 278L665.551 256.654L650 241.536L671.49 238.422L681.1 219Z" fill="#FFD15D"/>
    <path d="M680.922 219L690.587 238.422L712.199 241.536L696.56 256.654L700.253 278L680.922 267.922V219Z" fill="#F9B54C"/>
</svg>
