<svg viewBox="0 0 2906 768" fill="none" xmlns="http://www.w3.org/2000/svg">
  <path d="M2260 627.06C2260 552.005 2260 476.329 2260 400.03C2260 323.731 2260 248.055 2260 173C2277 173 2294.21 173 2311.63 173C2329.04 173 2346.04 173 2362.63 173C2362.63 248.055 2362.63 323.731 2362.63 400.03C2362.63 476.329 2362.63 552.005 2362.63 627.06C2346.04 627.06 2329.04 627.06 2311.63 627.06C2294.21 627.06 2277 627.06 2260 627.06Z" fill="white"/>
  <path d="M2563.25 288C2583.39 288 2603.52 288 2623.66 288C2643.8 288 2663.93 288 2684.07 288C2691.95 301.132 2700.05 314.483 2708.36 328.053C2716.68 341.185 2724.78 354.317 2732.66 367.449C2740.97 354.317 2749.29 341.185 2757.61 328.053C2765.92 314.483 2774.24 301.132 2782.56 288C2802.26 288 2822.17 288 2842.31 288C2862.45 288 2882.36 288 2902.06 288C2884.99 314.702 2867.48 341.623 2849.53 368.762C2832.02 395.902 2814.73 423.042 2797.66 450.181C2815.61 479.509 2833.77 509.057 2852.16 538.823C2870.54 568.589 2888.49 598.136 2906 627.464C2885.86 627.464 2865.73 627.464 2845.59 627.464C2825.46 627.464 2805.32 627.464 2785.18 627.464C2776.43 612.581 2767.46 597.698 2758.26 582.815C2749.51 567.494 2740.75 552.392 2732 537.509C2723.25 552.392 2714.05 567.494 2704.42 582.815C2695.23 597.698 2686.26 612.581 2677.5 627.464C2657.8 627.464 2637.89 627.464 2617.75 627.464C2597.62 627.464 2577.7 627.464 2558 627.464C2575.95 599.011 2594.11 570.121 2612.5 540.792C2630.88 511.026 2649.05 481.917 2667 453.464C2649.92 426.325 2632.63 398.747 2615.12 370.732C2597.62 342.717 2580.32 315.14 2563.25 288Z" fill="white"/>
  <path d="M2143.69 268.266C2131.66 268.266 2120.67 265.363 2110.72 259.558C2101.18 253.753 2093.51 246.081 2087.71 236.544C2081.9 227.007 2079 216.433 2079 204.822C2079 193.211 2081.9 182.845 2087.71 173.722C2093.51 164.185 2101.18 156.513 2110.72 150.708C2120.67 144.903 2131.66 142 2143.69 142C2155.3 142 2165.87 144.903 2175.41 150.708C2185.36 156.513 2193.24 164.185 2199.05 173.722C2204.85 182.845 2207.75 193.211 2207.75 204.822C2207.75 216.433 2204.85 227.007 2199.05 236.544C2193.24 246.081 2185.36 253.753 2175.41 259.558C2165.87 265.363 2155.3 268.266 2143.69 268.266ZM2092.06 626.538C2092.06 573.461 2092.06 519.969 2092.06 466.062C2092.06 411.741 2092.06 340.077 2092.06 287C2109.06 287 2126.27 287 2143.69 287C2161.1 287 2178.11 287 2194.69 287C2194.69 340.077 2194.69 411.741 2194.69 466.062C2194.69 519.969 2194.69 573.461 2194.69 626.538C2178.11 626.538 2161.1 626.538 2143.69 626.538C2126.27 626.538 2109.06 626.538 2092.06 626.538Z" fill="white"/>
  <path d="M2479.69 268.266C2467.66 268.266 2456.67 265.363 2446.72 259.558C2437.18 253.753 2429.51 246.081 2423.71 236.544C2417.9 227.007 2415 216.433 2415 204.822C2415 193.211 2417.9 182.845 2423.71 173.722C2429.51 164.185 2437.18 156.513 2446.72 150.708C2456.67 144.903 2467.66 142 2479.69 142C2491.3 142 2501.87 144.903 2511.41 150.708C2521.36 156.513 2529.24 164.185 2535.05 173.722C2540.85 182.845 2543.75 193.211 2543.75 204.822C2543.75 216.433 2540.85 227.007 2535.05 236.544C2529.24 246.081 2521.36 253.753 2511.41 259.558C2501.87 265.363 2491.3 268.266 2479.69 268.266ZM2428.06 626.538C2428.06 573.461 2428.06 519.969 2428.06 466.062C2428.06 411.741 2428.06 340.077 2428.06 287C2445.06 287 2462.27 287 2479.69 287C2497.1 287 2514.11 287 2530.69 287C2530.69 340.077 2530.69 411.741 2530.69 466.062C2530.69 519.969 2530.69 573.461 2530.69 626.538C2514.11 626.538 2497.1 626.538 2479.69 626.538C2462.27 626.538 2445.06 626.538 2428.06 626.538Z" fill="white"/>
  <path d="M1439.63 697C1423.04 697 1406.04 697 1388.63 697C1371.21 697 1354 697 1337 697C1337 627.751 1337 574.474 1337 503.566C1337 432.243 1337 361.957 1337 292.708C1354 292.708 1371.21 292.708 1388.63 292.708C1406.04 292.708 1423.04 292.708 1439.63 292.708C1439.63 295.611 1439.63 298.513 1439.63 301.416C1439.63 304.319 1439.63 307.429 1439.63 310.746C1450 302.453 1461.81 296.025 1475.08 291.464C1488.35 286.488 1502.45 284 1517.38 284C1538.11 284 1557.81 288.147 1576.47 296.44C1595.13 304.319 1611.51 315.722 1625.61 330.65C1640.12 345.578 1651.32 363.409 1659.2 384.142C1667.49 404.875 1671.64 427.889 1671.64 453.184C1671.64 478.064 1667.49 500.871 1659.2 521.604C1651.32 542.337 1640.12 560.375 1625.61 575.718C1611.51 590.646 1595.13 602.257 1576.47 610.55C1557.81 618.843 1537.91 622.99 1516.76 622.99C1501.83 622.99 1487.73 620.502 1474.46 615.526C1461.61 610.965 1450 604.33 1439.63 595.622C1439.63 615.111 1439.63 634.808 1439.63 654.712C1439.63 674.616 1439.63 677.511 1439.63 697ZM1503.07 532.178C1523.39 532.178 1539.36 525.129 1550.97 511.03C1562.99 496.517 1569.01 477.235 1569.01 453.184C1569.01 429.133 1562.99 410.059 1550.97 395.96C1539.36 381.861 1523.39 374.812 1503.07 374.812C1483.17 374.812 1467.21 382.069 1455.18 396.582C1443.15 410.681 1437.14 429.548 1437.14 453.184C1437.14 476.82 1443.15 495.895 1455.18 510.408C1467.21 524.921 1483.17 532.178 1503.07 532.178Z" fill="white"/>
  <path d="M1810.63 697C1794.04 697 1777.04 697 1759.63 697C1742.21 697 1725 697 1708 697C1708 627.751 1708 574.474 1708 503.566C1708 432.243 1708 361.957 1708 292.708C1725 292.708 1742.21 292.708 1759.63 292.708C1777.04 292.708 1794.04 292.708 1810.63 292.708C1810.63 295.611 1810.63 298.513 1810.63 301.416C1810.63 304.319 1810.63 307.429 1810.63 310.746C1821 302.453 1832.81 296.025 1846.08 291.464C1859.35 286.488 1873.45 284 1888.38 284C1909.11 284 1928.81 288.147 1947.47 296.44C1966.13 304.319 1982.51 315.722 1996.61 330.65C2011.12 345.578 2022.32 363.409 2030.2 384.142C2038.49 404.875 2042.64 427.889 2042.64 453.184C2042.64 478.064 2038.49 500.871 2030.2 521.604C2022.32 542.337 2011.12 560.375 1996.61 575.718C1982.51 590.646 1966.13 602.257 1947.47 610.55C1928.81 618.843 1908.91 622.99 1887.76 622.99C1872.83 622.99 1858.73 620.502 1845.46 615.526C1832.61 610.965 1821 604.33 1810.63 595.622C1810.63 615.111 1810.63 634.808 1810.63 654.712C1810.63 674.616 1810.63 677.511 1810.63 697ZM1874.07 532.178C1894.39 532.178 1910.36 525.129 1921.97 511.03C1933.99 496.517 1940.01 477.235 1940.01 453.184C1940.01 429.133 1933.99 410.059 1921.97 395.96C1910.36 381.861 1894.39 374.812 1874.07 374.812C1854.17 374.812 1838.21 382.069 1826.18 396.582C1814.15 410.681 1808.14 429.548 1808.14 453.184C1808.14 476.82 1814.15 495.895 1826.18 510.408C1838.21 524.921 1854.17 532.178 1874.07 532.178Z" fill="white"/>
  <path d="M832 627.418C856.747 547.467 881.494 466.564 906.24 384.709C931.463 302.854 956.448 221.951 981.195 142C1009.27 142 1037.59 142 1066.14 142C1095.17 142 1123.73 142 1151.81 142C1176.55 221.951 1201.3 302.854 1226.05 384.709C1251.27 466.564 1276.25 547.467 1301 627.418C1280.54 627.418 1259.6 627.418 1238.18 627.418C1217.24 627.418 1196.3 627.418 1175.36 627.418C1170.6 612.19 1166.08 596.961 1161.8 581.732C1157.52 566.027 1152.99 550.56 1148.24 535.332C1121.11 535.332 1093.75 535.332 1066.14 535.332C1039.02 535.332 1011.89 535.332 984.764 535.332C980.005 550.56 975.484 566.027 971.201 581.732C966.918 596.961 962.397 612.19 957.638 627.418C937.174 627.418 916.234 627.418 894.819 627.418C873.879 627.418 852.94 627.418 832 627.418ZM1016.17 428.968C1032.83 428.968 1049.49 428.968 1066.14 428.968C1083.28 428.968 1100.17 428.968 1116.83 428.968C1108.74 400.89 1100.41 372.574 1091.84 344.02C1083.28 315.466 1074.95 287.15 1066.86 259.071C1058.77 287.15 1050.2 315.466 1041.16 344.02C1032.59 372.574 1024.26 400.89 1016.17 428.968Z" fill="white"/>
  <path d="M297.139 12.8243C326.755 -4.27477 363.244 -4.27477 392.861 12.8243L642.139 156.745C671.755 173.844 690 205.445 690 239.643V527.485C690 561.683 671.756 593.283 642.139 610.383L392.861 754.304C363.244 771.403 326.755 771.403 297.139 754.304L47.8609 610.383C18.2445 593.283 0 561.683 0 527.485V239.643C0 205.445 18.2445 173.844 47.8609 156.745L297.139 12.8243Z" fill="white"/>
  <path d="M476.129 516.258C487.987 509.662 499.976 491.597 492.53 477.687L375.789 268.061C365.87 251.015 341.969 241.986 320.934 260.994L294.059 214.49C330.08 184.716 390.158 195.344 410.876 228.377L534.855 444.537C553.696 483.881 541.583 537.243 502.997 559.248C476.655 574.27 418.377 582.959 382.541 533.752L271.03 341.968L251.841 375.458L202.687 461.236C175.155 510.265 236.685 544.836 269.161 499.097L279.868 480.931C288.195 470.218 303.491 467.955 314.561 475.795C325.152 483.294 328.288 497.482 322.123 508.666L321.204 510.211L312.344 525.017C284.286 568.122 224.742 585.871 182.509 555.417C159.96 539.167 129.585 510.311 156.669 443.719L223.931 327.162L243.104 293.935L216.739 248.59C203.629 216.614 247.678 201.252 260.741 222.917L429.779 509.137C440.231 524.191 461.753 524.252 476.129 516.258Z" fill="#1A0A4C"/>
</svg>
