<svg viewBox="0 0 401 401" fill="none" xmlns="http://www.w3.org/2000/svg">
  <path d="M200.5 401C311.233 401 401 311.233 401 200.5C401 89.7669 311.233 0 200.5 0C89.7669 0 0 89.7669 0 200.5C0 311.233 89.7669 401 200.5 401Z" fill="#0E76B7"/>
  <path d="M99.8039 93C92.2354 93 86.0051 100.274 86.0051 109.109V243.355V248.725C85.9983 248.893 85.9983 249.061 86.0051 249.229V291.684C86.0051 300.813 91.9846 307.793 99.8039 307.793H302.187C310.006 307.793 315.986 300.813 315.986 291.684V249.564C316.005 249.285 316.005 249.005 315.986 248.725V243.355V109.109C315.986 100.274 309.756 93 302.187 93H99.8039ZM99.8039 103.74H302.187C304.737 103.74 306.787 106.132 306.787 109.109V243.355H95.2043V109.109C95.2043 106.132 97.2532 103.74 99.8039 103.74ZM118.202 264.835C123.262 264.835 127.402 269.668 127.402 275.574C127.402 281.481 123.262 286.314 118.202 286.314C113.143 286.314 109.003 281.481 109.003 275.574C109.003 269.668 113.143 264.835 118.202 264.835ZM150.399 264.835C155.459 264.835 159.599 269.668 159.599 275.574C159.599 281.481 155.459 286.314 150.399 286.314C145.34 286.314 141.201 281.481 141.201 275.574C141.201 269.668 145.34 264.835 150.399 264.835ZM177.997 264.835H292.988V286.314H177.997V264.835Z" fill="white"/>
</svg>
