<svg viewBox="0 0 1200 480" fill="none" xmlns="http://www.w3.org/2000/svg">
<g clip-path="url(#clip0_18_438)">
<rect width="1200" height="480" rx="20" fill="#EDFF6C"/>
<path fill-rule="evenodd" clip-rule="evenodd" d="M1034.5 169.008V36.0039H1035.5V169.008H1034.5Z" fill="#817E7E" fill-opacity="0.07"/>
<path fill-rule="evenodd" clip-rule="evenodd" d="M1103.5 169.008V36.0039H1104.5V169.008H1103.5Z" fill="#817E7E" fill-opacity="0.07"/>
<path fill-rule="evenodd" clip-rule="evenodd" d="M1173.5 169.008V36.0039H1174.5V169.008H1173.5Z" fill="#817E7E" fill-opacity="0.07"/>
<path fill-rule="evenodd" clip-rule="evenodd" d="M942.496 170.008V37.0039H943.496V170.008H942.496Z" fill="#817E7E" fill-opacity="0.07"/>
<path fill-rule="evenodd" clip-rule="evenodd" d="M872.496 170.008V37.0039H873.496V170.008H872.496Z" fill="#817E7E" fill-opacity="0.07"/>
<path d="M1114 170.5C1114 175.747 1109.75 180 1104.5 180C1099.25 180 1095 175.747 1095 170.5C1095 165.253 1099.25 161 1104.5 161C1109.75 161 1114 165.253 1114 170.5Z" fill="#817E7E" fill-opacity="0.07"/>
<path d="M986 204.5C986 209.747 981.747 214 976.5 214C971.253 214 967 209.747 967 204.5C967 199.253 971.253 195 976.5 195C981.747 195 986 199.253 986 204.5Z" fill="#817E7E" fill-opacity="0.07"/>
<path d="M887 309.5C887 314.747 882.747 319 877.5 319C872.253 319 868 314.747 868 309.5C868 304.253 872.253 300 877.5 300C882.747 300 887 304.253 887 309.5Z" fill="#817E7E" fill-opacity="0.07"/>
<path d="M1047 344.5C1047 349.747 1042.75 354 1037.5 354C1032.25 354 1028 349.747 1028 344.5C1028 339.253 1032.25 335 1037.5 335C1042.75 335 1047 339.253 1047 344.5Z" fill="#817E7E" fill-opacity="0.07"/>
<path d="M1117 344.5C1117 349.747 1112.75 354 1107.5 354C1102.25 354 1098 349.747 1098 344.5C1098 339.253 1102.25 335 1107.5 335C1112.75 335 1117 339.253 1117 344.5Z" fill="#817E7E" fill-opacity="0.07"/>
<path d="M381 308.5C381 313.747 376.747 318 371.5 318C366.253 318 362 313.747 362 308.5C362 303.253 366.253 299 371.5 299C376.747 299 381 303.253 381 308.5Z" fill="#817E7E" fill-opacity="0.07"/>
<path d="M539 343.5C539 348.747 534.747 353 529.5 353C524.253 353 520 348.747 520 343.5C520 338.253 524.253 334 529.5 334C534.747 334 539 338.253 539 343.5Z" fill="#817E7E" fill-opacity="0.07"/>
<path d="M609 343.5C609 348.747 604.747 353 599.5 353C594.253 353 590 348.747 590 343.5C590 338.253 594.253 334 599.5 334C604.747 334 609 338.253 609 343.5Z" fill="#817E7E" fill-opacity="0.07"/>
<path d="M478 204.5C478 209.747 473.747 214 468.5 214C463.253 214 459 209.747 459 204.5C459 199.253 463.253 195 468.5 195C473.747 195 478 199.253 478 204.5Z" fill="#817E7E" fill-opacity="0.07"/>
<path d="M100 343.5C100 348.747 95.7467 353 90.5 353C85.2533 353 81 348.747 81 343.5C81 338.253 85.2533 334 90.5 334C95.7467 334 100 338.253 100 343.5Z" fill="#817E7E" fill-opacity="0.07"/>
<path d="M31 343.5C31 348.747 26.7467 353 21.5 353C16.2533 353 12 348.747 12 343.5C12 338.253 16.2533 334 21.5 334C26.7467 334 31 338.253 31 343.5Z" fill="#817E7E" fill-opacity="0.07"/>
<path d="M127 100C127 119.33 111.33 135 92 135C72.67 135 57 119.33 57 100C57 80.67 72.67 65 92 65C111.33 65 127 80.67 127 100Z" fill="#817E7E" fill-opacity="0.07"/>
<path d="M97 170.5C97 175.747 92.7467 180 87.5 180C82.2533 180 78 175.747 78 170.5C78 165.253 82.2533 161 87.5 161C92.7467 161 97 165.253 97 170.5Z" fill="#817E7E" fill-opacity="0.07"/>
<path d="M605 170.5C605 175.747 600.747 180 595.5 180C590.253 180 586 175.747 586 170.5C586 165.253 590.253 161 595.5 161C600.747 161 605 165.253 605 170.5Z" fill="#817E7E" fill-opacity="0.07"/>
<path d="M715 73.5C715 78.7467 710.747 83 705.5 83C700.253 83 696 78.7467 696 73.5C696 68.2533 700.253 64 705.5 64C710.747 64 715 68.2533 715 73.5Z" fill="#817E7E" fill-opacity="0.07"/>
<path d="M206 73.5C206 78.7467 201.747 83 196.5 83C191.253 83 187 78.7467 187 73.5C187 68.2533 191.253 64 196.5 64C201.747 64 206 68.2533 206 73.5Z" fill="#817E7E" fill-opacity="0.07"/>
<path d="M407 30C407 49.33 391.33 65 372 65C352.67 65 337 49.33 337 30C337 10.67 352.67 -5 372 -5C391.33 -5 407 10.67 407 30Z" fill="#817E7E" fill-opacity="0.07"/>
<path d="M407 170C407 189.33 391.33 205 372 205C352.67 205 337 189.33 337 170C337 150.67 352.67 135 372 135C391.33 135 407 150.67 407 170Z" fill="#817E7E" fill-opacity="0.07"/>
<path d="M267 310C267 329.33 251.33 345 232 345C212.67 345 197 329.33 197 310C197 290.67 212.67 275 232 275C251.33 275 267 290.67 267 310Z" fill="#817E7E" fill-opacity="0.07"/>
<path d="M477 450C477 469.33 461.33 485 442 485C422.67 485 407 469.33 407 450C407 430.67 422.67 415 442 415C461.33 415 477 430.67 477 450Z" fill="#817E7E" fill-opacity="0.07"/>
<path d="M635 100C635 119.33 619.33 135 600 135C580.67 135 565 119.33 565 100C565 80.67 580.67 65 600 65C619.33 65 635 80.67 635 100Z" fill="#817E7E" fill-opacity="0.07"/>
<path d="M775 310C775 329.33 759.33 345 740 345C720.67 345 705 329.33 705 310C705 290.67 720.67 275 740 275C759.33 275 775 290.67 775 310Z" fill="#817E7E" fill-opacity="0.07"/>
<path d="M915 170C915 189.33 899.33 205 880 205C860.67 205 845 189.33 845 170C845 150.67 860.67 135 880 135C899.33 135 915 150.67 915 170Z" fill="#817E7E" fill-opacity="0.07"/>
<path d="M915 30C915 49.33 899.33 65 880 65C860.67 65 845 49.33 845 30C845 10.67 860.67 -5 880 -5C899.33 -5 915 10.67 915 30Z" fill="#817E7E" fill-opacity="0.07"/>
<path d="M1143 100C1143 119.33 1127.33 135 1108 135C1088.67 135 1073 119.33 1073 100C1073 80.67 1088.67 65 1108 65C1127.33 65 1143 80.67 1143 100Z" fill="#817E7E" fill-opacity="0.07"/>
<path d="M985 450C985 469.33 969.33 485 950 485C930.67 485 915 469.33 915 450C915 430.67 930.67 415 950 415C969.33 415 985 430.67 985 450Z" fill="#817E7E" fill-opacity="0.07"/>
<path fill-rule="evenodd" clip-rule="evenodd" d="M162 134C180.778 134 196 118.778 196 100C196 81.2223 180.778 66 162 66C143.222 66 128 81.2223 128 100C128 118.778 143.222 134 162 134ZM162 135C181.33 135 197 119.33 197 100C197 80.67 181.33 65 162 65C142.67 65 127 80.67 127 100C127 119.33 142.67 135 162 135Z" fill="#817E7E" fill-opacity="0.07"/>
<path fill-rule="evenodd" clip-rule="evenodd" d="M232 134C250.778 134 266 118.778 266 100C266 81.2223 250.778 66 232 66C213.222 66 198 81.2223 198 100C198 118.778 213.222 134 232 134ZM232 135C251.33 135 267 119.33 267 100C267 80.67 251.33 65 232 65C212.67 65 197 80.67 197 100C197 119.33 212.67 135 232 135Z" fill="#817E7E" fill-opacity="0.07"/>
<path fill-rule="evenodd" clip-rule="evenodd" d="M302 134C320.778 134 336 118.778 336 100C336 81.2223 320.778 66 302 66C283.222 66 268 81.2223 268 100C268 118.778 283.222 134 302 134ZM302 135C321.33 135 337 119.33 337 100C337 80.67 321.33 65 302 65C282.67 65 267 80.67 267 100C267 119.33 282.67 135 302 135Z" fill="#817E7E" fill-opacity="0.07"/>
<path fill-rule="evenodd" clip-rule="evenodd" d="M372 134C390.778 134 406 118.778 406 100C406 81.2223 390.778 66 372 66C353.222 66 338 81.2223 338 100C338 118.778 353.222 134 372 134ZM372 135C391.33 135 407 119.33 407 100C407 80.67 391.33 65 372 65C352.67 65 337 80.67 337 100C337 119.33 352.67 135 372 135Z" fill="#817E7E" fill-opacity="0.07"/>
<path fill-rule="evenodd" clip-rule="evenodd" d="M442 134C460.778 134 476 118.778 476 100C476 81.2223 460.778 66 442 66C423.222 66 408 81.2223 408 100C408 118.778 423.222 134 442 134ZM442 135C461.33 135 477 119.33 477 100C477 80.67 461.33 65 442 65C422.67 65 407 80.67 407 100C407 119.33 422.67 135 442 135Z" fill="#817E7E" fill-opacity="0.07"/>
<path fill-rule="evenodd" clip-rule="evenodd" d="M530 134C548.778 134 564 118.778 564 100C564 81.2223 548.778 66 530 66C511.222 66 496 81.2223 496 100C496 118.778 511.222 134 530 134ZM530 135C549.33 135 565 119.33 565 100C565 80.67 549.33 65 530 65C510.67 65 495 80.67 495 100C495 119.33 510.67 135 530 135Z" fill="#817E7E" fill-opacity="0.07"/>
<path fill-rule="evenodd" clip-rule="evenodd" d="M442 64C460.778 64 476 48.7777 476 30C476 11.2223 460.778 -4 442 -4C423.222 -4 408 11.2223 408 30C408 48.7777 423.222 64 442 64ZM442 65C461.33 65 477 49.33 477 30C477 10.67 461.33 -5 442 -5C422.67 -5 407 10.67 407 30C407 49.33 422.67 65 442 65Z" fill="#817E7E" fill-opacity="0.07"/>
<path fill-rule="evenodd" clip-rule="evenodd" d="M442 204C460.778 204 476 188.778 476 170C476 151.222 460.778 136 442 136C423.222 136 408 151.222 408 170C408 188.778 423.222 204 442 204ZM442 205C461.33 205 477 189.33 477 170C477 150.67 461.33 135 442 135C422.67 135 407 150.67 407 170C407 189.33 422.67 205 442 205Z" fill="#817E7E" fill-opacity="0.07"/>
<path fill-rule="evenodd" clip-rule="evenodd" d="M530 204C548.778 204 564 188.778 564 170C564 151.222 548.778 136 530 136C511.222 136 496 151.222 496 170C496 188.778 511.222 204 530 204ZM530 205C549.33 205 565 189.33 565 170C565 150.67 549.33 135 530 135C510.67 135 495 150.67 495 170C495 189.33 510.67 205 530 205Z" fill="#817E7E" fill-opacity="0.07"/>
<path fill-rule="evenodd" clip-rule="evenodd" d="M600 204C618.778 204 634 188.778 634 170C634 151.222 618.778 136 600 136C581.222 136 566 151.222 566 170C566 188.778 581.222 204 600 204ZM600 205C619.33 205 635 189.33 635 170C635 150.67 619.33 135 600 135C580.67 135 565 150.67 565 170C565 189.33 580.67 205 600 205Z" fill="#817E7E" fill-opacity="0.07"/>
<path fill-rule="evenodd" clip-rule="evenodd" d="M670 204C688.778 204 704 188.778 704 170C704 151.222 688.778 136 670 136C651.222 136 636 151.222 636 170C636 188.778 651.222 204 670 204ZM670 205C689.33 205 705 189.33 705 170C705 150.67 689.33 135 670 135C650.67 135 635 150.67 635 170C635 189.33 650.67 205 670 205Z" fill="#817E7E" fill-opacity="0.07"/>
<path fill-rule="evenodd" clip-rule="evenodd" d="M92 204C110.778 204 126 188.778 126 170C126 151.222 110.778 136 92 136C73.2223 136 58 151.222 58 170C58 188.778 73.2223 204 92 204ZM92 205C111.33 205 127 189.33 127 170C127 150.67 111.33 135 92 135C72.67 135 57 150.67 57 170C57 189.33 72.67 205 92 205Z" fill="#817E7E" fill-opacity="0.07"/>
<path fill-rule="evenodd" clip-rule="evenodd" d="M22 204C40.7777 204 56 188.778 56 170C56 151.222 40.7777 136 22 136C3.22232 136 -12 151.222 -12 170C-12 188.778 3.22232 204 22 204ZM22 205C41.33 205 57 189.33 57 170C57 150.67 41.33 135 22 135C2.67003 135 -13 150.67 -13 170C-13 189.33 2.67003 205 22 205Z" fill="#817E7E" fill-opacity="0.07"/>
<path fill-rule="evenodd" clip-rule="evenodd" d="M22 134C40.7777 134 56 118.778 56 100C56 81.2223 40.7777 66 22 66C3.22232 66 -12 81.2223 -12 100C-12 118.778 3.22232 134 22 134ZM22 135C41.33 135 57 119.33 57 100C57 80.67 41.33 65 22 65C2.67003 65 -13 80.67 -13 100C-13 119.33 2.67003 135 22 135Z" fill="#817E7E" fill-opacity="0.07"/>
<path fill-rule="evenodd" clip-rule="evenodd" d="M372 484C390.778 484 406 468.778 406 450C406 431.222 390.778 416 372 416C353.222 416 338 431.222 338 450C338 468.778 353.222 484 372 484ZM372 485C391.33 485 407 469.33 407 450C407 430.67 391.33 415 372 415C352.67 415 337 430.67 337 450C337 469.33 352.67 485 372 485Z" fill="#817E7E" fill-opacity="0.07"/>
<path fill-rule="evenodd" clip-rule="evenodd" d="M530 344C548.778 344 564 328.778 564 310C564 291.222 548.778 276 530 276C511.222 276 496 291.222 496 310C496 328.778 511.222 344 530 344ZM530 345C549.33 345 565 329.33 565 310C565 290.67 549.33 275 530 275C510.67 275 495 290.67 495 310C495 329.33 510.67 345 530 345Z" fill="#817E7E" fill-opacity="0.07"/>
<path fill-rule="evenodd" clip-rule="evenodd" d="M600 344C618.778 344 634 328.778 634 310C634 291.222 618.778 276 600 276C581.222 276 566 291.222 566 310C566 328.778 581.222 344 600 344ZM600 345C619.33 345 635 329.33 635 310C635 290.67 619.33 275 600 275C580.67 275 565 290.67 565 310C565 329.33 580.67 345 600 345Z" fill="#817E7E" fill-opacity="0.07"/>
<path fill-rule="evenodd" clip-rule="evenodd" d="M670 344C688.778 344 704 328.778 704 310C704 291.222 688.778 276 670 276C651.222 276 636 291.222 636 310C636 328.778 651.222 344 670 344ZM670 345C689.33 345 705 329.33 705 310C705 290.67 689.33 275 670 275C650.67 275 635 290.67 635 310C635 329.33 650.67 345 670 345Z" fill="#817E7E" fill-opacity="0.07"/>
<path fill-rule="evenodd" clip-rule="evenodd" d="M530 414C548.778 414 564 398.778 564 380C564 361.222 548.778 346 530 346C511.222 346 496 361.222 496 380C496 398.778 511.222 414 530 414ZM530 415C549.33 415 565 399.33 565 380C565 360.67 549.33 345 530 345C510.67 345 495 360.67 495 380C495 399.33 510.67 415 530 415Z" fill="#817E7E" fill-opacity="0.07"/>
<path fill-rule="evenodd" clip-rule="evenodd" d="M600 414C618.778 414 634 398.778 634 380C634 361.222 618.778 346 600 346C581.222 346 566 361.222 566 380C566 398.778 581.222 414 600 414ZM600 415C619.33 415 635 399.33 635 380C635 360.67 619.33 345 600 345C580.67 345 565 360.67 565 380C565 399.33 580.67 415 600 415Z" fill="#817E7E" fill-opacity="0.07"/>
<path fill-rule="evenodd" clip-rule="evenodd" d="M670 414C688.778 414 704 398.778 704 380C704 361.222 688.778 346 670 346C651.222 346 636 361.222 636 380C636 398.778 651.222 414 670 414ZM670 415C689.33 415 705 399.33 705 380C705 360.67 689.33 345 670 345C650.67 345 635 360.67 635 380C635 399.33 650.67 415 670 415Z" fill="#817E7E" fill-opacity="0.07"/>
<path fill-rule="evenodd" clip-rule="evenodd" d="M740 414C758.778 414 774 398.778 774 380C774 361.222 758.778 346 740 346C721.222 346 706 361.222 706 380C706 398.778 721.222 414 740 414ZM740 415C759.33 415 775 399.33 775 380C775 360.67 759.33 345 740 345C720.67 345 705 360.67 705 380C705 399.33 720.67 415 740 415Z" fill="#817E7E" fill-opacity="0.07"/>
<path fill-rule="evenodd" clip-rule="evenodd" d="M810 414C828.778 414 844 398.778 844 380C844 361.222 828.778 346 810 346C791.222 346 776 361.222 776 380C776 398.778 791.222 414 810 414ZM810 415C829.33 415 845 399.33 845 380C845 360.67 829.33 345 810 345C790.67 345 775 360.67 775 380C775 399.33 790.67 415 810 415Z" fill="#817E7E" fill-opacity="0.07"/>
<path fill-rule="evenodd" clip-rule="evenodd" d="M880 414C898.778 414 914 398.778 914 380C914 361.222 898.778 346 880 346C861.222 346 846 361.222 846 380C846 398.778 861.222 414 880 414ZM880 415C899.33 415 915 399.33 915 380C915 360.67 899.33 345 880 345C860.67 345 845 360.67 845 380C845 399.33 860.67 415 880 415Z" fill="#817E7E" fill-opacity="0.07"/>
<path fill-rule="evenodd" clip-rule="evenodd" d="M810 344C828.778 344 844 328.778 844 310C844 291.222 828.778 276 810 276C791.222 276 776 291.222 776 310C776 328.778 791.222 344 810 344ZM810 345C829.33 345 845 329.33 845 310C845 290.67 829.33 275 810 275C790.67 275 775 290.67 775 310C775 329.33 790.67 345 810 345Z" fill="#817E7E" fill-opacity="0.07"/>
<path fill-rule="evenodd" clip-rule="evenodd" d="M880 344C898.778 344 914 328.778 914 310C914 291.222 898.778 276 880 276C861.222 276 846 291.222 846 310C846 328.778 861.222 344 880 344ZM880 345C899.33 345 915 329.33 915 310C915 290.67 899.33 275 880 275C860.67 275 845 290.67 845 310C845 329.33 860.67 345 880 345Z" fill="#817E7E" fill-opacity="0.07"/>
<path fill-rule="evenodd" clip-rule="evenodd" d="M950 344C968.778 344 984 328.778 984 310C984 291.222 968.778 276 950 276C931.222 276 916 291.222 916 310C916 328.778 931.222 344 950 344ZM950 345C969.33 345 985 329.33 985 310C985 290.67 969.33 275 950 275C930.67 275 915 290.67 915 310C915 329.33 930.67 345 950 345Z" fill="#817E7E" fill-opacity="0.07"/>
<path fill-rule="evenodd" clip-rule="evenodd" d="M950 414C968.778 414 984 398.778 984 380C984 361.222 968.778 346 950 346C931.222 346 916 361.222 916 380C916 398.778 931.222 414 950 414ZM950 415C969.33 415 985 399.33 985 380C985 360.67 969.33 345 950 345C930.67 345 915 360.67 915 380C915 399.33 930.67 415 950 415Z" fill="#817E7E" fill-opacity="0.07"/>
<path fill-rule="evenodd" clip-rule="evenodd" d="M880 484C898.778 484 914 468.778 914 450C914 431.222 898.778 416 880 416C861.222 416 846 431.222 846 450C846 468.778 861.222 484 880 484ZM880 485C899.33 485 915 469.33 915 450C915 430.67 899.33 415 880 415C860.67 415 845 430.67 845 450C845 469.33 860.67 485 880 485Z" fill="#817E7E" fill-opacity="0.07"/>
<path fill-rule="evenodd" clip-rule="evenodd" d="M1038 414C1056.78 414 1072 398.778 1072 380C1072 361.222 1056.78 346 1038 346C1019.22 346 1004 361.222 1004 380C1004 398.778 1019.22 414 1038 414ZM1038 415C1057.33 415 1073 399.33 1073 380C1073 360.67 1057.33 345 1038 345C1018.67 345 1003 360.67 1003 380C1003 399.33 1018.67 415 1038 415Z" fill="#817E7E" fill-opacity="0.07"/>
<path fill-rule="evenodd" clip-rule="evenodd" d="M1108 414C1126.78 414 1142 398.778 1142 380C1142 361.222 1126.78 346 1108 346C1089.22 346 1074 361.222 1074 380C1074 398.778 1089.22 414 1108 414ZM1108 415C1127.33 415 1143 399.33 1143 380C1143 360.67 1127.33 345 1108 345C1088.67 345 1073 360.67 1073 380C1073 399.33 1088.67 415 1108 415Z" fill="#817E7E" fill-opacity="0.07"/>
<path fill-rule="evenodd" clip-rule="evenodd" d="M1178 414C1196.78 414 1212 398.778 1212 380C1212 361.222 1196.78 346 1178 346C1159.22 346 1144 361.222 1144 380C1144 398.778 1159.22 414 1178 414ZM1178 415C1197.33 415 1213 399.33 1213 380C1213 360.67 1197.33 345 1178 345C1158.67 345 1143 360.67 1143 380C1143 399.33 1158.67 415 1178 415Z" fill="#817E7E" fill-opacity="0.07"/>
<path fill-rule="evenodd" clip-rule="evenodd" d="M1038 344C1056.78 344 1072 328.778 1072 310C1072 291.222 1056.78 276 1038 276C1019.22 276 1004 291.222 1004 310C1004 328.778 1019.22 344 1038 344ZM1038 345C1057.33 345 1073 329.33 1073 310C1073 290.67 1057.33 275 1038 275C1018.67 275 1003 290.67 1003 310C1003 329.33 1018.67 345 1038 345Z" fill="#817E7E" fill-opacity="0.07"/>
<path fill-rule="evenodd" clip-rule="evenodd" d="M1108 344C1126.78 344 1142 328.778 1142 310C1142 291.222 1126.78 276 1108 276C1089.22 276 1074 291.222 1074 310C1074 328.778 1089.22 344 1108 344ZM1108 345C1127.33 345 1143 329.33 1143 310C1143 290.67 1127.33 275 1108 275C1088.67 275 1073 290.67 1073 310C1073 329.33 1088.67 345 1108 345Z" fill="#817E7E" fill-opacity="0.07"/>
<path fill-rule="evenodd" clip-rule="evenodd" d="M1178 344C1196.78 344 1212 328.778 1212 310C1212 291.222 1196.78 276 1178 276C1159.22 276 1144 291.222 1144 310C1144 328.778 1159.22 344 1178 344ZM1178 345C1197.33 345 1213 329.33 1213 310C1213 290.67 1197.33 275 1178 275C1158.67 275 1143 290.67 1143 310C1143 329.33 1158.67 345 1178 345Z" fill="#817E7E" fill-opacity="0.07"/>
<path fill-rule="evenodd" clip-rule="evenodd" d="M302 414C320.778 414 336 398.778 336 380C336 361.222 320.778 346 302 346C283.222 346 268 361.222 268 380C268 398.778 283.222 414 302 414ZM302 415C321.33 415 337 399.33 337 380C337 360.67 321.33 345 302 345C282.67 345 267 360.67 267 380C267 399.33 282.67 415 302 415Z" fill="#817E7E" fill-opacity="0.07"/>
<path fill-rule="evenodd" clip-rule="evenodd" d="M372 414C390.778 414 406 398.778 406 380C406 361.222 390.778 346 372 346C353.222 346 338 361.222 338 380C338 398.778 353.222 414 372 414ZM372 415C391.33 415 407 399.33 407 380C407 360.67 391.33 345 372 345C352.67 345 337 360.67 337 380C337 399.33 352.67 415 372 415Z" fill="#817E7E" fill-opacity="0.07"/>
<path fill-rule="evenodd" clip-rule="evenodd" d="M442 414C460.778 414 476 398.778 476 380C476 361.222 460.778 346 442 346C423.222 346 408 361.222 408 380C408 398.778 423.222 414 442 414ZM442 415C461.33 415 477 399.33 477 380C477 360.67 461.33 345 442 345C422.67 345 407 360.67 407 380C407 399.33 422.67 415 442 415Z" fill="#817E7E" fill-opacity="0.07"/>
<path fill-rule="evenodd" clip-rule="evenodd" d="M302 344C320.778 344 336 328.778 336 310C336 291.222 320.778 276 302 276C283.222 276 268 291.222 268 310C268 328.778 283.222 344 302 344ZM302 345C321.33 345 337 329.33 337 310C337 290.67 321.33 275 302 275C282.67 275 267 290.67 267 310C267 329.33 282.67 345 302 345Z" fill="#817E7E" fill-opacity="0.07"/>
<path fill-rule="evenodd" clip-rule="evenodd" d="M372 344C390.778 344 406 328.778 406 310C406 291.222 390.778 276 372 276C353.222 276 338 291.222 338 310C338 328.778 353.222 344 372 344ZM372 345C391.33 345 407 329.33 407 310C407 290.67 391.33 275 372 275C352.67 275 337 290.67 337 310C337 329.33 352.67 345 372 345Z" fill="#817E7E" fill-opacity="0.07"/>
<path fill-rule="evenodd" clip-rule="evenodd" d="M442 344C460.778 344 476 328.778 476 310C476 291.222 460.778 276 442 276C423.222 276 408 291.222 408 310C408 328.778 423.222 344 442 344ZM442 345C461.33 345 477 329.33 477 310C477 290.67 461.33 275 442 275C422.67 275 407 290.67 407 310C407 329.33 422.67 345 442 345Z" fill="#817E7E" fill-opacity="0.07"/>
<path fill-rule="evenodd" clip-rule="evenodd" d="M162 204C180.778 204 196 188.778 196 170C196 151.222 180.778 136 162 136C143.222 136 128 151.222 128 170C128 188.778 143.222 204 162 204ZM162 205C181.33 205 197 189.33 197 170C197 150.67 181.33 135 162 135C142.67 135 127 150.67 127 170C127 189.33 142.67 205 162 205Z" fill="#817E7E" fill-opacity="0.07"/>
<path fill-rule="evenodd" clip-rule="evenodd" d="M232 204C250.778 204 266 188.778 266 170C266 151.222 250.778 136 232 136C213.222 136 198 151.222 198 170C198 188.778 213.222 204 232 204ZM232 205C251.33 205 267 189.33 267 170C267 150.67 251.33 135 232 135C212.67 135 197 150.67 197 170C197 189.33 212.67 205 232 205Z" fill="#817E7E" fill-opacity="0.07"/>
<path fill-rule="evenodd" clip-rule="evenodd" d="M302 204C320.778 204 336 188.778 336 170C336 151.222 320.778 136 302 136C283.222 136 268 151.222 268 170C268 188.778 283.222 204 302 204ZM302 205C321.33 205 337 189.33 337 170C337 150.67 321.33 135 302 135C282.67 135 267 150.67 267 170C267 189.33 282.67 205 302 205Z" fill="#817E7E" fill-opacity="0.07"/>
<path fill-rule="evenodd" clip-rule="evenodd" d="M372 274C390.778 274 406 258.778 406 240C406 221.222 390.778 206 372 206C353.222 206 338 221.222 338 240C338 258.778 353.222 274 372 274ZM372 275C391.33 275 407 259.33 407 240C407 220.67 391.33 205 372 205C352.67 205 337 220.67 337 240C337 259.33 352.67 275 372 275Z" fill="#817E7E" fill-opacity="0.07"/>
<path fill-rule="evenodd" clip-rule="evenodd" d="M442 274C460.778 274 476 258.778 476 240C476 221.222 460.778 206 442 206C423.222 206 408 221.222 408 240C408 258.778 423.222 274 442 274ZM442 275C461.33 275 477 259.33 477 240C477 220.67 461.33 205 442 205C422.67 205 407 220.67 407 240C407 259.33 422.67 275 442 275Z" fill="#817E7E" fill-opacity="0.07"/>
<path fill-rule="evenodd" clip-rule="evenodd" d="M92 414C110.778 414 126 398.778 126 380C126 361.222 110.778 346 92 346C73.2223 346 58 361.222 58 380C58 398.778 73.2223 414 92 414ZM92 415C111.33 415 127 399.33 127 380C127 360.67 111.33 345 92 345C72.67 345 57 360.67 57 380C57 399.33 72.67 415 92 415Z" fill="#817E7E" fill-opacity="0.07"/>
<path fill-rule="evenodd" clip-rule="evenodd" d="M162 414C180.778 414 196 398.778 196 380C196 361.222 180.778 346 162 346C143.222 346 128 361.222 128 380C128 398.778 143.222 414 162 414ZM162 415C181.33 415 197 399.33 197 380C197 360.67 181.33 345 162 345C142.67 345 127 360.67 127 380C127 399.33 142.67 415 162 415Z" fill="#817E7E" fill-opacity="0.07"/>
<path fill-rule="evenodd" clip-rule="evenodd" d="M232 414C250.778 414 266 398.778 266 380C266 361.222 250.778 346 232 346C213.222 346 198 361.222 198 380C198 398.778 213.222 414 232 414ZM232 415C251.33 415 267 399.33 267 380C267 360.67 251.33 345 232 345C212.67 345 197 360.67 197 380C197 399.33 212.67 415 232 415Z" fill="#817E7E" fill-opacity="0.07"/>
<path fill-rule="evenodd" clip-rule="evenodd" d="M22 344C40.7777 344 56 328.778 56 310C56 291.222 40.7777 276 22 276C3.22232 276 -12 291.222 -12 310C-12 328.778 3.22232 344 22 344ZM22 345C41.33 345 57 329.33 57 310C57 290.67 41.33 275 22 275C2.67003 275 -13 290.67 -13 310C-13 329.33 2.67003 345 22 345Z" fill="#817E7E" fill-opacity="0.07"/>
<path fill-rule="evenodd" clip-rule="evenodd" d="M22 414C40.7777 414 56 398.778 56 380C56 361.222 40.7777 346 22 346C3.22232 346 -12 361.222 -12 380C-12 398.778 3.22232 414 22 414ZM22 415C41.33 415 57 399.33 57 380C57 360.67 41.33 345 22 345C2.67003 345 -13 360.67 -13 380C-13 399.33 2.67003 415 22 415Z" fill="#817E7E" fill-opacity="0.07"/>
<path fill-rule="evenodd" clip-rule="evenodd" d="M92 344C110.778 344 126 328.778 126 310C126 291.222 110.778 276 92 276C73.2223 276 58 291.222 58 310C58 328.778 73.2223 344 92 344ZM92 345C111.33 345 127 329.33 127 310C127 290.67 111.33 275 92 275C72.67 275 57 290.67 57 310C57 329.33 72.67 345 92 345Z" fill="#817E7E" fill-opacity="0.07"/>
<path fill-rule="evenodd" clip-rule="evenodd" d="M162 344C180.778 344 196 328.778 196 310C196 291.222 180.778 276 162 276C143.222 276 128 291.222 128 310C128 328.778 143.222 344 162 344ZM162 345C181.33 345 197 329.33 197 310C197 290.67 181.33 275 162 275C142.67 275 127 290.67 127 310C127 329.33 142.67 345 162 345Z" fill="#817E7E" fill-opacity="0.07"/>
<path fill-rule="evenodd" clip-rule="evenodd" d="M740 204C758.778 204 774 188.778 774 170C774 151.222 758.778 136 740 136C721.222 136 706 151.222 706 170C706 188.778 721.222 204 740 204ZM740 205C759.33 205 775 189.33 775 170C775 150.67 759.33 135 740 135C720.67 135 705 150.67 705 170C705 189.33 720.67 205 740 205Z" fill="#817E7E" fill-opacity="0.07"/>
<path fill-rule="evenodd" clip-rule="evenodd" d="M810 204C828.778 204 844 188.778 844 170C844 151.222 828.778 136 810 136C791.222 136 776 151.222 776 170C776 188.778 791.222 204 810 204ZM810 205C829.33 205 845 189.33 845 170C845 150.67 829.33 135 810 135C790.67 135 775 150.67 775 170C775 189.33 790.67 205 810 205Z" fill="#817E7E" fill-opacity="0.07"/>
<path fill-rule="evenodd" clip-rule="evenodd" d="M810 134C828.778 134 844 118.778 844 100C844 81.2223 828.778 66 810 66C791.222 66 776 81.2223 776 100C776 118.778 791.222 134 810 134ZM810 135C829.33 135 845 119.33 845 100C845 80.67 829.33 65 810 65C790.67 65 775 80.67 775 100C775 119.33 790.67 135 810 135Z" fill="#817E7E" fill-opacity="0.07"/>
<path fill-rule="evenodd" clip-rule="evenodd" d="M740 134C758.778 134 774 118.778 774 100C774 81.2223 758.778 66 740 66C721.222 66 706 81.2223 706 100C706 118.778 721.222 134 740 134ZM740 135C759.33 135 775 119.33 775 100C775 80.67 759.33 65 740 65C720.67 65 705 80.67 705 100C705 119.33 720.67 135 740 135Z" fill="#817E7E" fill-opacity="0.07"/>
<path fill-rule="evenodd" clip-rule="evenodd" d="M670 134C688.778 134 704 118.778 704 100C704 81.2223 688.778 66 670 66C651.222 66 636 81.2223 636 100C636 118.778 651.222 134 670 134ZM670 135C689.33 135 705 119.33 705 100C705 80.67 689.33 65 670 65C650.67 65 635 80.67 635 100C635 119.33 650.67 135 670 135Z" fill="#817E7E" fill-opacity="0.07"/>
<path fill-rule="evenodd" clip-rule="evenodd" d="M880 134C898.778 134 914 118.778 914 100C914 81.2223 898.778 66 880 66C861.222 66 846 81.2223 846 100C846 118.778 861.222 134 880 134ZM880 135C899.33 135 915 119.33 915 100C915 80.67 899.33 65 880 65C860.67 65 845 80.67 845 100C845 119.33 860.67 135 880 135Z" fill="#817E7E" fill-opacity="0.07"/>
<path fill-rule="evenodd" clip-rule="evenodd" d="M950 134C968.778 134 984 118.778 984 100C984 81.2223 968.778 66 950 66C931.222 66 916 81.2223 916 100C916 118.778 931.222 134 950 134ZM950 135C969.33 135 985 119.33 985 100C985 80.67 969.33 65 950 65C930.67 65 915 80.67 915 100C915 119.33 930.67 135 950 135Z" fill="#817E7E" fill-opacity="0.07"/>
<path fill-rule="evenodd" clip-rule="evenodd" d="M950 64C968.778 64 984 48.7777 984 30C984 11.2223 968.778 -4 950 -4C931.222 -4 916 11.2223 916 30C916 48.7777 931.222 64 950 64ZM950 65C969.33 65 985 49.33 985 30C985 10.67 969.33 -5 950 -5C930.67 -5 915 10.67 915 30C915 49.33 930.67 65 950 65Z" fill="#817E7E" fill-opacity="0.07"/>
<path fill-rule="evenodd" clip-rule="evenodd" d="M1038 134C1056.78 134 1072 118.778 1072 100C1072 81.2223 1056.78 66 1038 66C1019.22 66 1004 81.2223 1004 100C1004 118.778 1019.22 134 1038 134ZM1038 135C1057.33 135 1073 119.33 1073 100C1073 80.67 1057.33 65 1038 65C1018.67 65 1003 80.67 1003 100C1003 119.33 1018.67 135 1038 135Z" fill="#817E7E" fill-opacity="0.07"/>
<path fill-rule="evenodd" clip-rule="evenodd" d="M1038 204C1056.78 204 1072 188.778 1072 170C1072 151.222 1056.78 136 1038 136C1019.22 136 1004 151.222 1004 170C1004 188.778 1019.22 204 1038 204ZM1038 205C1057.33 205 1073 189.33 1073 170C1073 150.67 1057.33 135 1038 135C1018.67 135 1003 150.67 1003 170C1003 189.33 1018.67 205 1038 205Z" fill="#817E7E" fill-opacity="0.07"/>
<path fill-rule="evenodd" clip-rule="evenodd" d="M950 204C968.778 204 984 188.778 984 170C984 151.222 968.778 136 950 136C931.222 136 916 151.222 916 170C916 188.778 931.222 204 950 204ZM950 205C969.33 205 985 189.33 985 170C985 150.67 969.33 135 950 135C930.67 135 915 150.67 915 170C915 189.33 930.67 205 950 205Z" fill="#817E7E" fill-opacity="0.07"/>
<path fill-rule="evenodd" clip-rule="evenodd" d="M1108 204C1126.78 204 1142 188.778 1142 170C1142 151.222 1126.78 136 1108 136C1089.22 136 1074 151.222 1074 170C1074 188.778 1089.22 204 1108 204ZM1108 205C1127.33 205 1143 189.33 1143 170C1143 150.67 1127.33 135 1108 135C1088.67 135 1073 150.67 1073 170C1073 189.33 1088.67 205 1108 205Z" fill="#817E7E" fill-opacity="0.07"/>
<path fill-rule="evenodd" clip-rule="evenodd" d="M1178 204C1196.78 204 1212 188.778 1212 170C1212 151.222 1196.78 136 1178 136C1159.22 136 1144 151.222 1144 170C1144 188.778 1159.22 204 1178 204ZM1178 205C1197.33 205 1213 189.33 1213 170C1213 150.67 1197.33 135 1178 135C1158.67 135 1143 150.67 1143 170C1143 189.33 1158.67 205 1178 205Z" fill="#817E7E" fill-opacity="0.07"/>
<path fill-rule="evenodd" clip-rule="evenodd" d="M1178 134C1196.78 134 1212 118.778 1212 100C1212 81.2223 1196.78 66 1178 66C1159.22 66 1144 81.2223 1144 100C1144 118.778 1159.22 134 1178 134ZM1178 135C1197.33 135 1213 119.33 1213 100C1213 80.67 1197.33 65 1178 65C1158.67 65 1143 80.67 1143 100C1143 119.33 1158.67 135 1178 135Z" fill="#817E7E" fill-opacity="0.07"/>
<path fill-rule="evenodd" clip-rule="evenodd" d="M880 274C898.778 274 914 258.778 914 240C914 221.222 898.778 206 880 206C861.222 206 846 221.222 846 240C846 258.778 861.222 274 880 274ZM880 275C899.33 275 915 259.33 915 240C915 220.67 899.33 205 880 205C860.67 205 845 220.67 845 240C845 259.33 860.67 275 880 275Z" fill="#817E7E" fill-opacity="0.07"/>
<path fill-rule="evenodd" clip-rule="evenodd" d="M950 274C968.778 274 984 258.778 984 240C984 221.222 968.778 206 950 206C931.222 206 916 221.222 916 240C916 258.778 931.222 274 950 274ZM950 275C969.33 275 985 259.33 985 240C985 220.67 969.33 205 950 205C930.67 205 915 220.67 915 240C915 259.33 930.67 275 950 275Z" fill="#817E7E" fill-opacity="0.07"/>
<path fill-rule="evenodd" clip-rule="evenodd" d="M1201 100H-7V99H1201V100Z" fill="#817E7E" fill-opacity="0.07"/>
<path fill-rule="evenodd" clip-rule="evenodd" d="M1201 170H-7V169H1201V170Z" fill="#817E7E" fill-opacity="0.07"/>
<path fill-rule="evenodd" clip-rule="evenodd" d="M1201 311H-7V310H1201V311Z" fill="#817E7E" fill-opacity="0.07"/>
<path fill-rule="evenodd" clip-rule="evenodd" d="M1201 345H-7V344H1201V345Z" fill="#817E7E" fill-opacity="0.07"/>
<path fill-rule="evenodd" clip-rule="evenodd" d="M1201 378H-7V377H1201V378Z" fill="#817E7E" fill-opacity="0.07"/>
<path fill-rule="evenodd" clip-rule="evenodd" d="M18.5039 169.008L18.5039 36.0039H19.5039L19.5039 169.008H18.5039Z" fill="#817E7E" fill-opacity="0.07"/>
<path fill-rule="evenodd" clip-rule="evenodd" d="M87.4961 169.008L87.4961 36.0039H88.4961L88.4961 169.008H87.4961Z" fill="#817E7E" fill-opacity="0.07"/>
<path fill-rule="evenodd" clip-rule="evenodd" d="M157.496 169.008L157.496 36.0039H158.496L158.496 169.008H157.496Z" fill="#817E7E" fill-opacity="0.07"/>
<path fill-rule="evenodd" clip-rule="evenodd" d="M226.488 169.008L226.488 36.0039H227.488L227.488 169.008H226.488Z" fill="#817E7E" fill-opacity="0.07"/>
<path fill-rule="evenodd" clip-rule="evenodd" d="M296.496 169.008V36.0039H297.496V169.008H296.496Z" fill="#817E7E" fill-opacity="0.07"/>
<path fill-rule="evenodd" clip-rule="evenodd" d="M365.488 169.008V36.0039H366.488V169.008H365.488Z" fill="#817E7E" fill-opacity="0.07"/>
<path fill-rule="evenodd" clip-rule="evenodd" d="M435.496 169.008V36.0039H436.496V169.008H435.496Z" fill="#817E7E" fill-opacity="0.07"/>
<path fill-rule="evenodd" clip-rule="evenodd" d="M525.496 169.008V36.0039H526.496V169.008H525.496Z" fill="#817E7E" fill-opacity="0.07"/>
<path fill-rule="evenodd" clip-rule="evenodd" d="M594.496 169.008V36.0039H595.496V169.008H594.496Z" fill="#817E7E" fill-opacity="0.07"/>
<path fill-rule="evenodd" clip-rule="evenodd" d="M665.496 169.008V36.0039H666.496V169.008H665.496Z" fill="#817E7E" fill-opacity="0.07"/>
<path fill-rule="evenodd" clip-rule="evenodd" d="M734.496 169.008V36.0039H735.496V169.008H734.496Z" fill="#817E7E" fill-opacity="0.07"/>
<path fill-rule="evenodd" clip-rule="evenodd" d="M802.496 169.008V36.0039H803.496V169.008H802.496Z" fill="#817E7E" fill-opacity="0.07"/>
<path fill-rule="evenodd" clip-rule="evenodd" d="M91.4961 397.01L91.4961 311.004H92.4961L92.4961 397.01H91.4961Z" fill="#817E7E" fill-opacity="0.07"/>
<path fill-rule="evenodd" clip-rule="evenodd" d="M160.508 397.01L160.508 311.004H161.508L161.508 397.01H160.508Z" fill="#817E7E" fill-opacity="0.07"/>
<path fill-rule="evenodd" clip-rule="evenodd" d="M230.508 397.01L230.508 311.004H231.508L231.508 397.01H230.508Z" fill="#817E7E" fill-opacity="0.07"/>
<path fill-rule="evenodd" clip-rule="evenodd" d="M300.508 397.01V311.004H301.508V397.01H300.508Z" fill="#817E7E" fill-opacity="0.07"/>
<path fill-rule="evenodd" clip-rule="evenodd" d="M369.508 397.01V311.004H370.508V397.01H369.508Z" fill="#817E7E" fill-opacity="0.07"/>
<path fill-rule="evenodd" clip-rule="evenodd" d="M439.508 397.01V311.004H440.508V397.01H439.508Z" fill="#817E7E" fill-opacity="0.07"/>
<path fill-rule="evenodd" clip-rule="evenodd" d="M598.508 397.01V311.004H599.508V397.01H598.508Z" fill="#817E7E" fill-opacity="0.07"/>
<path fill-rule="evenodd" clip-rule="evenodd" d="M669.508 397.01V311.004H670.508V397.01H669.508Z" fill="#817E7E" fill-opacity="0.07"/>
<path fill-rule="evenodd" clip-rule="evenodd" d="M809 397.006V311H810V397.006H809Z" fill="#817E7E" fill-opacity="0.07"/>
<path fill-rule="evenodd" clip-rule="evenodd" d="M877 397.006V311H878V397.006H877Z" fill="#817E7E" fill-opacity="0.07"/>
<path fill-rule="evenodd" clip-rule="evenodd" d="M947 397.006V311H948V397.006H947Z" fill="#817E7E" fill-opacity="0.07"/>
<path fill-rule="evenodd" clip-rule="evenodd" d="M1107 397.006V311H1108V397.006H1107Z" fill="#817E7E" fill-opacity="0.07"/>
<path fill-rule="evenodd" clip-rule="evenodd" d="M1177 397.006V311H1178V397.006H1177Z" fill="#817E7E" fill-opacity="0.07"/>
<path fill-rule="evenodd" clip-rule="evenodd" d="M738 397.006V311H739V397.006H738Z" fill="#817E7E" fill-opacity="0.07"/>
<path fill-rule="evenodd" clip-rule="evenodd" d="M1003 240H873V239H1003V240Z" fill="#817E7E" fill-opacity="0.07"/>
</g>
<defs>
<clipPath id="clip0_18_438">
<rect width="1200" height="480" rx="20" fill="white"/>
</clipPath>
</defs>
</svg>
