<svg viewBox="0 0 30 31" fill="none" xmlns="http://www.w3.org/2000/svg">
    <path d="M27.2569 12.9441H26.25V12.8922H15V17.8922H22.0644C21.0338 20.8028 18.2644 22.8922 15 22.8922C10.8581 22.8922 7.5 19.5341 7.5 15.3922C7.5 11.2503 10.8581 7.89218 15 7.89218C16.9119 7.89218 18.6513 8.61343 19.9756 9.79156L23.5112 6.25593C21.2787 4.17531 18.2925 2.89218 15 2.89218C8.09688 2.89218 2.5 8.48906 2.5 15.3922C2.5 22.2953 8.09688 27.8922 15 27.8922C21.9031 27.8922 27.5 22.2953 27.5 15.3922C27.5 14.5541 27.4137 13.7359 27.2569 12.9441Z" fill="#FFC107"/>
    <path d="M3.94141 9.57406L8.04828 12.5859C9.15953 9.83468 11.8508 7.89218 15.0002 7.89218C16.912 7.89218 18.6514 8.61343 19.9758 9.79156L23.5114 6.25593C21.2789 4.17531 18.2927 2.89218 15.0002 2.89218C10.1989 2.89218 6.03516 5.60281 3.94141 9.57406Z" fill="#FF3D00"/>
    <path d="M14.9992 27.8922C18.228 27.8922 21.1617 26.6566 23.3798 24.6472L19.5111 21.3734C18.2142 22.3603 16.629 22.8939 14.9992 22.8922C11.748 22.8922 8.98734 20.8191 7.94734 17.9259L3.87109 21.0666C5.93984 25.1147 10.1411 27.8922 14.9992 27.8922Z" fill="#4CAF50"/>
    <path d="M27.2569 12.9441H26.25V12.8922H15V17.8922H22.0644C21.5714 19.2774 20.6833 20.4879 19.51 21.3741L19.5119 21.3728L23.3806 24.6466C23.1069 24.8953 27.5 21.6422 27.5 15.3922C27.5 14.5541 27.4137 13.7359 27.2569 12.9441Z" fill="#1976D2"/>
</svg>
