<svg viewBox="0 0 401 401" fill="none" xmlns="http://www.w3.org/2000/svg">
  <circle cx="200.5" cy="200.5" r="200.5" fill="#EA4335"/>
  <path d="M318.998 203.162C318.998 194.623 318.232 186.413 316.809 178.531H203.398V225.165H268.205C265.358 240.162 256.82 252.861 244.012 261.4V291.723H283.093C305.862 270.704 318.998 239.834 318.998 203.162Z" fill="white"/>
  <path d="M203.439 320.842C235.953 320.842 263.213 310.113 283.137 291.721L244.054 261.397C233.325 268.622 219.642 273.001 203.439 273.001C172.129 273.001 145.526 251.872 136.002 223.408H95.9336V254.5C115.749 293.801 156.364 320.842 203.439 320.842Z" fill="white"/>
  <path d="M135.984 223.293C133.575 216.068 132.152 208.405 132.152 200.414C132.152 192.423 133.575 184.76 135.984 177.535V146.445H95.9175C87.7072 162.647 83 180.929 83 200.414C83 219.9 87.7072 238.182 95.9175 254.384L127.117 230.081L135.984 223.293Z" fill="white"/>
  <path d="M203.439 127.95C221.174 127.95 236.938 134.081 249.528 145.904L284.013 111.42C263.103 91.9329 235.953 80 203.439 80C156.364 80 115.749 107.041 95.9336 146.452L136.002 177.543C145.526 149.079 172.129 127.95 203.439 127.95Z" fill="white"/>
</svg>
