<svg viewBox="0 0 804 612" fill="none" xmlns="http://www.w3.org/2000/svg">
    <path d="M91.5 11.0006C100.096 5.43969 109.926 2.07546 120.126 1.20362C130.327 0.331783 140.585 1.97904 150 6.0006L458.5 127.501C465.804 130.473 473.615 132.001 481.5 132.001H679C695.576 132.001 711.473 138.585 723.194 150.306C734.915 162.027 741.5 177.925 741.5 194.501V199.501H804V349.501H741.5V356.001C741.108 372.315 734.351 387.83 722.672 399.228C710.993 410.627 695.319 417.005 679 417.001L604 576.001C598.921 586.708 590.926 595.765 580.932 602.133C570.938 608.501 559.35 611.921 547.5 612.001H516C499.511 611.869 483.742 605.226 472.129 593.519C460.516 581.812 453.999 565.99 454 549.501V423.001L150 544.501C142.523 547.476 134.548 549.003 126.5 549.001C114.014 548.799 101.856 544.978 91.5 538.001C83.2762 532.448 76.4927 525.017 71.7106 516.322C66.9286 507.628 64.2855 497.919 64 488.001V62.5006C64.0458 52.3264 66.5747 42.3172 71.3671 33.3423C76.1596 24.3674 83.0706 16.6981 91.5 11.0006ZM516.5 194.501V356.001H679V194.501H516.5ZM516.5 549.501H548L609.5 417.001H516.5V549.501ZM435.5 363.501C441.437 360.467 447.627 357.957 454 356.001V191.001C447.688 189.698 441.499 187.858 435.5 185.501L126.5 62.5006V486.501L435.5 363.501ZM62.5 212.001V337.001C45.924 337.001 30.0269 330.416 18.3058 318.695C6.58481 306.974 3.8147e-06 291.077 3.8147e-06 274.501C3.8147e-06 257.925 6.58481 242.027 18.3058 230.306C30.0269 218.585 45.924 212.001 62.5 212.001Z" fill="white"/>
</svg>
