<svg viewBox="0 0 74 74" fill="none" xmlns="http://www.w3.org/2000/svg">
<path d="M37 74C57.4345 74 74 57.4345 74 37C74 16.5655 57.4345 0 37 0C16.5655 0 0 16.5655 0 37C0 57.4345 16.5655 74 37 74Z" fill="#F3EF15"/>
<path d="M50.0423 37.2053L28.959 50.5233V37.4477V23.8872L50.0423 37.2053Z" fill="black"/>
<path d="M28.9583 51.4118C28.805 51.4118 28.6507 51.378 28.5108 51.3088C28.1965 51.1552 28 50.8533 28 50.5239V23.8878C28 23.5584 28.1965 23.2565 28.5108 23.1029C28.8251 22.9484 29.2046 22.9697 29.4988 23.1544L50.5822 36.4725C50.8428 36.6376 51 36.912 51 37.2058C51 37.4997 50.8428 37.7741 50.5812 37.9392L29.4979 51.2573C29.3359 51.3594 29.1471 51.4118 28.9583 51.4118ZM29.9167 25.5685V48.844L48.3406 37.2058L29.9167 25.5685Z" fill="black"/>
</svg>
