<svg viewBox="0 0 401 401" fill="none" xmlns="http://www.w3.org/2000/svg">
    <path d="M200.5 401C311.233 401 401 311.233 401 200.5C401 89.7669 311.233 0 200.5 0C89.7669 0 0 89.7669 0 200.5C0 311.233 89.7669 401 200.5 401Z" fill="#FFA91A"/>
    <path fill-rule="evenodd" clip-rule="evenodd" d="M270.666 72H194.666C180.67 72 169.333 83.4509 169.333 97.5887V110.383C169.333 117.446 175.008 123.177 182 123.177C188.992 123.177 194.666 117.446 194.666 110.383C194.666 103.321 200.341 97.5887 207.334 97.5887H258C264.992 97.5887 270.666 103.321 270.666 110.383V212.738C270.666 219.8 264.992 225.532 258 225.532C251.008 225.532 245.334 231.264 245.334 238.327C245.334 245.389 251.008 251.121 258 251.121H270.666C284.664 251.121 296 239.67 296 225.532V97.5887C296 83.4509 284.664 72 270.666 72ZM207.334 289.504V174.355C207.334 167.293 201.659 161.56 194.666 161.56H144C137.008 161.56 131.333 167.293 131.333 174.355V289.504C131.333 296.566 137.008 302.298 144 302.298H194.666C201.659 302.298 207.334 296.566 207.334 289.504ZM131.333 135.972H207.334C221.33 135.972 232.666 147.423 232.666 161.56V302.298C232.666 316.437 221.33 327.887 207.334 327.887H131.333C117.337 327.887 106 316.437 106 302.298V161.56C106 147.423 117.337 135.972 131.333 135.972ZM182.532 263.915C182.532 270.978 176.857 276.71 169.865 276.71C162.861 276.71 157.199 270.978 157.199 263.915C157.199 256.853 162.861 251.121 169.865 251.121C176.857 251.121 182.532 256.853 182.532 263.915Z" fill="white"/>
</svg>
