<svg viewBox="0 0 401 401" fill="none" xmlns="http://www.w3.org/2000/svg">
    <path d="M200.5 401C311.233 401 401 311.233 401 200.5C401 89.7669 311.233 0 200.5 0C89.7669 0 0 89.7669 0 200.5C0 311.233 89.7669 401 200.5 401Z" fill="#FFA91A"/>
    <path d="M170.056 161.705L132.184 199.583L170.056 237.444C174.287 241.68 174.287 248.551 170.056 252.781C167.93 254.907 165.17 255.96 162.388 255.96C159.605 255.96 156.845 254.907 154.719 252.781L109.178 207.246C107.144 205.218 106 202.457 106 199.583C106 196.714 107.144 193.948 109.178 191.914L154.719 146.368C158.955 142.138 165.821 142.138 170.056 146.368C174.287 150.604 174.287 157.459 170.056 161.705ZM292.822 191.909L247.286 146.362C243.051 142.132 236.185 142.132 231.949 146.362C227.713 150.598 227.713 157.464 231.949 161.7L269.816 199.577L231.949 237.444C227.713 241.68 227.713 248.551 231.949 252.781C234.075 254.907 236.841 255.96 239.618 255.96C242.395 255.96 245.166 254.907 247.286 252.781L292.822 207.246C294.856 205.212 296 202.452 296 199.577C296 196.714 294.856 193.942 292.822 191.909ZM219.958 125.347C214.122 123.844 208.238 127.369 206.752 133.162L174.211 260.602C172.736 266.405 176.234 272.317 182.031 273.803C182.937 274.036 183.843 274.144 184.727 274.144C189.575 274.144 193.979 270.874 195.232 265.982L227.773 138.542C229.259 132.733 225.755 126.827 219.958 125.347Z" fill="white"/>
</svg>
